<?xml version="1.0" standalone="no"?>
<!DOCTYPE svg PUBLIC "-//W3C//DTD SVG 1.1//EN" "http://www.w3.org/Graphics/SVG/1.1/DTD/svg11.dtd" >
<svg xmlns="http://www.w3.org/2000/svg">
<metadata>
This is a custom SVG webfont generated by Font Squirrel.
Copyright   : Copyright c 2011 by Oleg Frolov  Cyreal All rights reserved
Designer    : Oleg Frolov  Cyreal
Foundry     : Oleg Frolov  Cyreal
Foundry URL : httpcyrealorg
</metadata>
<defs>
<font id="BrawlerRegular" horiz-adv-x="1570" >
<font-face units-per-em="2048" ascent="1536" descent="-512" />
<missing-glyph horiz-adv-x="716" />
<glyph unicode=" "  horiz-adv-x="716" />
<glyph unicode="&#x09;" horiz-adv-x="716" />
<glyph unicode="&#xa0;" horiz-adv-x="716" />
<glyph unicode="!" horiz-adv-x="747" d="M225 113q53 98 152 149q94 -51 145 -145q-57 -98 -151 -150q-97 50 -146 146zM256 1352q43 72 123 121q47 -27 70.5 -50.5t48.5 -68.5l-66 -934h-113z" />
<glyph unicode="&#x22;" horiz-adv-x="675" d="M72 1409q37 68 92 84q55 -16 92 -84l-55 -465h-74zM401 1409q37 68 93 84q55 -16 92 -84l-56 -465h-73z" />
<glyph unicode="#" horiz-adv-x="1724" d="M143 436v144h353l100 280h-350v144h401l182 501l123 -41l-166 -460h357l182 501l123 -41l-166 -460h299v-144h-352l-101 -280h351v-144h-404l-180 -504l-123 41l166 463h-358l-181 -504l-123 41l166 463h-299zM633 580h358l101 280h-359z" />
<glyph unicode="$" horiz-adv-x="1136" d="M113 414l102 10l76 -299q106 -43 232 -43h22v565q-195 82 -257 125q-163 112 -163 305q0 168 118.5 257t301.5 112v323h102v-319q111 0 203 -24.5t135 -63.5v-346l-102 -10l-78 305q-80 31 -158 32v-552q88 -37 144.5 -69t121 -84t96 -123t31.5 -161q0 -170 -110.5 -260 t-282.5 -108v-330h-102v324q-17 -1 -34 -1q-117 0 -224 25q-123 27 -174 64v346zM319 1075q0 -82 57.5 -135t168.5 -106v501q-100 -20 -163 -88t-63 -172zM647 98q199 53 199 256q0 88 -51.5 145.5t-147.5 102.5v-504z" />
<glyph unicode="%" horiz-adv-x="1435" d="M72 1151q0 137 70.5 224t211.5 87q143 0 214 -86t71 -225q0 -137 -70.5 -222t-212.5 -85q-143 0 -213.5 85t-70.5 222zM205 1151q0 -102 38 -165.5t113.5 -63.5t113.5 63.5t38 165.5t-38 167.5t-114 65.5q-78 0 -114.5 -64.5t-36.5 -168.5zM256 0l770 1434h154 l-770 -1434h-154zM797 287q0 137 70.5 224t211.5 87q143 0 214 -86t71 -225q0 -137 -70.5 -222t-212.5 -85q-143 0 -213.5 85t-70.5 222zM930 287q0 -102 38 -166t113.5 -64t113.5 63.5t38 166t-38 168t-114 65.5q-78 0 -114.5 -64.5t-36.5 -168.5z" />
<glyph unicode="&#x26;" horiz-adv-x="1533" d="M106 319q0 127 98.5 251t227.5 196q-78 78 -118 148.5t-40 162.5q0 178 126 279.5t315 101.5q231 0 348 -147l-129 -264l-94 38l32 195q-66 66 -155 66q-98 0 -175 -68t-77 -168q0 -94 78 -184q31 -35 178 -212t225 -259l160 247l-141 21l20 98h420v-61l-172 -74 l-209 -315q236 -246 424 -299l-21 -72h-79q-238 80 -418 227q-20 -31 -48 -61.5t-83.5 -77.5t-138 -76.5t-177.5 -29.5q-170 0 -273.5 98t-103.5 239zM303 326q0 -96 58 -156.5t169 -60.5q164 0 316 192q-109 100 -330 365q-98 -66 -155.5 -158t-57.5 -182z" />
<glyph unicode="'" horiz-adv-x="389" d="M102 1409q37 68 93 84q55 -16 92 -84l-56 -465h-73z" />
<glyph unicode="(" horiz-adv-x="747" d="M143 549q0 268 102.5 521t297.5 435l61 -45q-276 -289 -276 -911.5t276 -910.5l-61 -46q-195 182 -297.5 435.5t-102.5 521.5z" />
<glyph unicode=")" horiz-adv-x="747" d="M143 1460l62 45q195 -182 297 -435t102 -521t-102.5 -521t-296.5 -436l-62 46q277 290 277 913q0 621 -277 909z" />
<glyph unicode="*" horiz-adv-x="1015" d="M94 1108l56 170l282 -137l-29 -86zM205 799l217 225l74 -53l-148 -279zM418 1477h178l-43 -312h-90zM528 979l74 55l219 -227l-145 -102zM575 1151l285 137l51 -170l-305 -55z" />
<glyph unicode="+" horiz-adv-x="1708" d="M246 535v145h532v557h152v-557h532v-145h-532v-535h-152v535h-532z" />
<glyph unicode="," horiz-adv-x="567" d="M109 100q53 98 151 150q95 -52 146 -146q6 -28 6 -60q0 -49 -13 -108q-24 -100 -80.5 -186t-123.5 -108l-41 51q68 45 91 121q14 46 14 90q0 26 -5 51q-96 49 -145 145z" />
<glyph unicode="-" horiz-adv-x="704" d="M102 399v154h500v-154h-500z" />
<glyph unicode="." horiz-adv-x="583" d="M143 113q53 98 152 149q94 -51 145 -145q-57 -98 -151 -150q-97 50 -146 146z" />
<glyph unicode="/" horiz-adv-x="1224" d="M82 -322l942 1756h170l-942 -1756h-170z" />
<glyph unicode="0" horiz-adv-x="1212" d="M92 715q0 158 27.5 288t87 235t161 163.5t238.5 58.5t238.5 -58.5t161 -163.5t87 -235.5t27.5 -287.5q0 -326 -124 -529.5t-388 -203.5q-180 0 -300 102t-168 261t-48 370zM313 719q0 -625 285 -625q301 0 301 625q0 629 -297 629q-289 0 -289 -629z" />
<glyph unicode="1" horiz-adv-x="1138" d="M164 1176v71q172 66 475 219h70v-1335l266 -39l-21 -92h-735v72l285 59v1116z" />
<glyph unicode="2" horiz-adv-x="1198" d="M92 127l202 193l167 160l121 121q71 71 98 106.5t61.5 87t45 91.5t18.5 88t8 107q0 145 -77 213t-193 68q-57 0 -123 -20.5t-103 -55.5l-81 -328l-103 21v346q80 61 210 105.5t224 44.5q215 0 343 -100.5t128 -305.5q0 -174 -118.5 -322.5t-491.5 -497.5l-70 -65h600 l41 183l86 -21v-346h-993v127z" />
<glyph unicode="3" horiz-adv-x="1239" d="M102 72v346l103 20l69 -288q88 -57 228 -58q178 0 273 83t95 247q0 102 -65.5 179t-190.5 101h-137v123h123q242 41 242 252q0 117 -81 196t-210 79q-147 0 -236 -56l-69 -288l-103 20v346q227 90 457 90q201 0 330 -87t129 -281q0 -104 -78 -200.5t-201 -137.5 q137 -41 226.5 -126t89.5 -214q0 -215 -151.5 -324.5t-379.5 -109.5q-254 0 -463 88z" />
<glyph unicode="4" horiz-adv-x="1204" d="M61 344v55l797 1065h96v-1007h197v-113h-197v-213l195 -39l-21 -92h-600v72l222 59v213h-689zM244 457h506v671z" />
<glyph unicode="5" horiz-adv-x="1261" d="M123 61v347l102 20l70 -289q121 -55 246 -55q152 0 252 81t100 243q0 135 -96 232q-91 93 -261 93h-14q-20 0 -73 -4q-23 -2 -66 -5t-64 -7h-94l58 719h667l62 106l106 -26l-94 -265h-643l-33 -411q135 30 265 30h8q236 0 365.5 -130t129.5 -308q0 -158 -80 -264.5 t-201.5 -151.5t-275.5 -45q-233 0 -436 90z" />
<glyph unicode="6" horiz-adv-x="1226" d="M113 584q0 211 77.5 385t201.5 277.5t266 157.5q136 52 270 52h10l37 -92q-115 -8 -220.5 -48t-199.5 -115t-150.5 -199.5t-56.5 -286.5q152 143 363 143q182 0 307 -105.5t125 -303.5q0 -193 -140.5 -332.5t-347.5 -139.5q-258 0 -400 158t-142 449zM338 614 q0 -246 80 -386t235 -140q127 0 196 93t69 249q0 145 -84 226t-211 81q-158 0 -285 -123z" />
<glyph unicode="7" horiz-adv-x="1126" d="M154 1049v415h911v-100q-270 -584 -582 -1364h-235q301 651 651 1280h-567l-72 -254z" />
<glyph unicode="8" horiz-adv-x="1208" d="M121 332q0 270 295 407q-104 53 -167 149.5t-63 201.5q0 150 125 262t332 112q178 0 296 -89t118 -249q0 -242 -248 -364q66 -35 111 -62.5t97 -74.5t79.5 -107.5t27.5 -132.5q0 -199 -151.5 -307.5t-360.5 -108.5q-205 0 -348 92.5t-143 270.5zM336 362 q0 -139 85 -208.5t204 -69.5q115 0 200.5 64.5t85.5 175.5q0 35 -5 64.5t-20 54.5l-26 45q-12 20 -40 41l-44 34q-16 12 -55 32.5t-58 28.5l-67 31q-49 23 -70 31q-78 -39 -134 -129t-56 -195zM397 1124q0 -135 103 -204q104 -66 202 -109q139 129 140 319q0 106 -60.5 163 t-154.5 57q-96 0 -163 -60t-67 -166z" />
<glyph unicode="9" horiz-adv-x="1239" d="M106 985q0 193 140.5 332t347.5 139q258 0 400.5 -157.5t142.5 -448.5q0 -211 -78 -385t-202 -277.5t-265 -158.5q-136 -52 -271 -52h-10l-37 93q115 8 220.5 48t199.5 114.5t150.5 199.5t56.5 287q-152 -143 -362 -144q-182 0 -307.5 105.5t-125.5 304.5zM332 1004 q0 -145 84 -226.5t211 -81.5q158 0 284 123q0 246 -79.5 386.5t-235.5 140.5q-127 0 -195.5 -93t-68.5 -249z" />
<glyph unicode=":" horiz-adv-x="624" d="M164 113q53 98 151 149q94 -51 146 -145q-57 -98 -152 -150q-96 50 -145 146zM164 915q53 98 151 150q94 -51 146 -145q-57 -98 -152 -150q-96 49 -145 145z" />
<glyph unicode=";" horiz-adv-x="659" d="M190 915q53 98 152 150q94 -51 145 -145q-57 -98 -151 -150q-97 49 -146 145zM190 100q53 98 152 150q94 -52 145 -146q7 -28 7 -61q0 -48 -14 -107q-23 -100 -79.5 -186t-124.5 -108l-40 51q68 45 91 121q14 46 14 90q0 26 -5 51q-96 49 -146 145z" />
<glyph unicode="&#x3c;" horiz-adv-x="1738" d="M246 553v127l1247 506v-160l-1036 -410l1036 -409v-160z" />
<glyph unicode="=" horiz-adv-x="1708" d="M246 354v146h1216v-146h-1216zM246 739v146h1216v-146h-1216z" />
<glyph unicode="&#x3e;" horiz-adv-x="1738" d="M246 47v160l1036 409l-1036 410v160l1247 -506v-127z" />
<glyph unicode="?" horiz-adv-x="980" d="M117 1370q160 88 364 88q152 0 254.5 -70.5t102.5 -207.5q0 -98 -40 -173t-95.5 -118t-111.5 -79t-96 -75t-40 -86q0 -100 90 -100q52 0 80 74l73 -58q-23 -61 -65.5 -92t-81.5 -37q-20 -3 -40 -3q-82 0 -139 49q-69 61 -69 182q0 59 52.5 123.5t114.5 112.5t114.5 115.5 t52.5 131.5q0 94 -60.5 145t-146.5 51h-4q-68 0 -129 -32l-16 -213l-101 -15zM344 113q53 98 152 149q94 -51 145 -145q-57 -98 -152 -150q-96 50 -145 146z" />
<glyph unicode="@" horiz-adv-x="1673" d="M23 578q0 137 35.5 267t110.5 247.5t179.5 205.5t255 140.5t324.5 52.5q178 0 316 -58.5t221 -157.5t125 -219t42 -253q0 -268 -152.5 -464t-402.5 -196q-39 0 -67 4q-10 2 -23 39q-8 18 -10 35l51 262q-41 -74 -90 -146.5t-127 -146t-141 -73.5q-109 0 -177.5 83 t-68.5 246q0 279 153.5 479.5t335.5 200.5q130 0 183 -104l10 78h154l-130 -838q186 18 292 175t106 362q0 266 -164 425.5t-444 159.5q-328 0 -539 -224t-211 -560q0 -348 198.5 -543.5t485.5 -195.5q266 0 549 121q8 -29 14 -39q2 -10 6 -19.5t7 -15.5l2 -6 q-78 -45 -242 -96.5t-338 -51.5q-375 0 -602 237.5t-227 586.5zM604 481q0 -74 22.5 -130t75.5 -56q86 0 161 89t116 206t63.5 211t22.5 127q0 84 -117 84q-90 0 -160.5 -62.5t-108.5 -153.5t-56.5 -173t-18.5 -142z" />
<glyph unicode="A" horiz-adv-x="1380" d="M-20 0v72l145 51l493 1311h150l500 -1307l143 -35l-20 -92h-471v72l145 45l-131 334h-563l-125 -328l166 -31l-21 -92h-411zM412 563h481l-242 633z" />
<glyph unicode="B" horiz-adv-x="1308" d="M72 0v72l194 59v1172l-194 38l20 93h582q225 0 350 -94.5t125 -268.5q0 -141 -91 -217t-220 -96v-10q152 -4 265.5 -95.5t113.5 -246.5q0 -225 -137.5 -315.5t-405.5 -90.5h-602zM471 113h203q168 0 247.5 84t79.5 206q0 113 -79.5 198t-219.5 85h-231v-573zM471 788h236 q90 0 158.5 72t68.5 203q0 121 -67.5 189.5t-192.5 68.5h-203v-533z" />
<glyph unicode="C" horiz-adv-x="1343" d="M92 715q0 223 107.5 395t279.5 259t377 87q195 0 377 -84v-346l-103 -20l-69 288q-78 49 -240 49q-215 0 -364.5 -162.5t-149.5 -465.5q0 -324 148.5 -471.5t384.5 -147.5q119 0 233 56l74 313l104 -21v-346q-236 -116 -456 -116h-4q-295 0 -497 193.5t-202 539.5z" />
<glyph unicode="D" horiz-adv-x="1482" d="M72 0v72l194 59v1172l-194 38l20 93h584q342 0 528.5 -205t186.5 -516q0 -307 -190.5 -510t-524.5 -203h-604zM471 113h170q252 0 393.5 160.5t141.5 439.5q0 289 -131.5 448.5t-403.5 159.5h-170v-1208z" />
<glyph unicode="E" horiz-adv-x="1273" d="M72 0v72l194 59v1172l-194 38l20 93h1047v-336l-103 -21l-65 244h-500v-520l346 8l55 137l72 -20v-363l-57 -20l-70 135l-346 10v-575h539l65 237l107 -22v-328h-1110z" />
<glyph unicode="F" horiz-adv-x="1200" d="M72 0v72l194 59v1172l-194 38l20 93h1047v-347l-103 -20l-65 254h-500v-520l346 8l55 137l72 -20v-363l-57 -20l-70 135l-346 10v-557l234 -39l-21 -92h-612z" />
<glyph unicode="G" horiz-adv-x="1466" d="M92 715q0 188 63.5 334.5t173 234.5t249 133t301.5 45q212 0 411 -90v-346l-104 -20l-70 288q-78 49 -239 49q-256 0 -413 -159.5t-157 -468.5q0 -166 48 -292t128 -194.5t168 -102.5t180 -34q113 0 254 53v371l-204 39v72h524v-72l-115 -37v-416q-248 -122 -483 -122h-4 q-297 0 -504 195.5t-207 539.5z" />
<glyph unicode="H" horiz-adv-x="1638" d="M72 0v72l194 59v1172l-194 38l20 93h574v-72l-195 -59v-517h696v517l-194 38l20 93h574v-72l-195 -59v-1172l195 -39l-21 -92h-573v72l194 59v543h-696v-543l195 -39l-21 -92h-573z" />
<glyph unicode="I" horiz-adv-x="737" d="M72 0v72l194 59v1172l-194 38l20 93h574v-72l-195 -59v-1172l195 -39l-21 -92h-573z" />
<glyph unicode="J" horiz-adv-x="915" d="M31 55v336l106 21l74 -303q59 -20 112 -21h3q52 0 89 20q38 21 58.5 50.5t30.5 81t13 95.5t3 111v89v768l-194 38l20 93h559v-72l-180 -59v-752q0 -115 -2 -169t-26.5 -144.5t-75.5 -151.5q-98 -113 -267 -113q-156 0 -323 82z" />
<glyph unicode="K" horiz-adv-x="1400" d="M72 0v72l194 59v1172l-194 38l20 93h533v-72l-154 -59v-519h184l392 537l-132 20l21 93h412v-72l-174 -57l-379 -517l442 -659l195 -37l-21 -92h-334l-450 672h-156v-541l174 -39l-20 -92h-553z" />
<glyph unicode="L" horiz-adv-x="1140" d="M61 0v72l195 59v1172l-195 38l21 93h594v-72l-215 -59v-1190h467l69 295l103 -21v-387h-1039z" />
<glyph unicode="M" horiz-adv-x="1935" d="M61 0v72l195 59v1172l-193 38l21 93h362l517 -1024l503 1024h398v-72l-195 -59v-1172l195 -39l-21 -92h-571v72l192 57v1032l-506 -1030h-71l-508 1004v-1004l194 -39l-20 -92h-492z" />
<glyph unicode="N" horiz-adv-x="1595" d="M61 0v72l195 59v1172l-195 38l21 93h297l838 -1112v981l-193 38l20 93h490v-72l-195 -59v-1303h-122l-838 1114v-983l194 -39l-20 -92h-492z" />
<glyph unicode="O" d="M92 719q0 317 188.5 530t503.5 213q217 0 379 -106.5t239 -273.5t77 -367q0 -317 -188.5 -530.5t-504.5 -213.5q-219 0 -379.5 106.5t-237.5 273.5t-77 368zM307 754q0 -178 50.5 -324.5t167 -246t284.5 -99.5q199 0 327 176t128 420q0 178 -50.5 324.5t-167 246 t-284.5 99.5q-199 0 -327 -176.5t-128 -419.5z" />
<glyph unicode="P" horiz-adv-x="1228" d="M72 0v72l194 59v1172l-194 38l20 93h510q90 0 156.5 -6.5t148.5 -32t134.5 -71.5t89 -132t36.5 -205q0 -430 -565 -430h-131v-426l236 -39l-21 -92h-614zM471 670h131q76 0 129 10t108.5 40t84 97.5t28.5 169.5q0 334 -350 334h-131v-651z" />
<glyph unicode="Q" horiz-adv-x="1603" d="M92 719q0 317 188.5 530t503.5 213q217 0 379 -106.5t239 -273.5t77 -367q0 -268 -138.5 -467t-377.5 -256q82 -127 243 -164q87 -20 170 -20q69 0 135 14v-76q-102 -41 -212 -52q-39 -4 -77 -4q-72 0 -141 13q-108 21 -200.5 90.5t-145.5 179.5q-203 12 -352.5 121 t-220 270.5t-70.5 354.5zM307 754q0 -178 50.5 -324.5t167 -246t284.5 -99.5q199 0 327 176t128 420q0 178 -50.5 324.5t-167 246t-284.5 99.5q-199 0 -327 -176.5t-128 -419.5z" />
<glyph unicode="R" horiz-adv-x="1376" d="M72 0v72l194 59v1172l-194 38l20 93h510q88 0 157.5 -7.5t151.5 -34t137.5 -71.5t92.5 -128t37 -196q0 -260 -260 -356l313 -516l166 -33l-21 -92h-309l-348 594q-61 -6 -117 -6h-131v-457l195 -39l-21 -92h-573zM471 700h131q74 0 131.5 11.5t112.5 41t86 91t31 153.5 q-1 324 -361 324h-131v-621z" />
<glyph unicode="S" horiz-adv-x="1142" d="M113 68v335l102 21l76 -289q117 -43 223 -43q301 0 301 262q0 76 -38 131.5t-99.5 89t-133.5 64.5l-146 65q-74 34 -135.5 78.5t-99.5 119.5t-38 175q0 131 81 219t190.5 121t240.5 33q250 0 338 -88v-336l-103 -20l-77 297q-88 35 -168 34q-123 0 -205 -66.5t-82 -195.5 q0 -74 51 -131t128 -91t166 -78t166 -91t128 -132t51 -198q0 -104 -43 -180t-118.5 -117t-160.5 -59t-186 -18q-129 0 -248.5 26.5t-160.5 61.5z" />
<glyph unicode="T" horiz-adv-x="1284" d="M41 1047v387h1202v-387l-102 -21l-68 295h-325v-1190l194 -39l-20 -92h-574v72l195 59v1190h-332l-68 -295z" />
<glyph unicode="U" horiz-adv-x="1542" d="M61 1341l21 93h573v-72l-194 -59v-828q0 -190 99 -286.5t288 -96.5q74 0 130 15.5t93 36t62.5 61.5t38 70.5t18.5 86t7 85t1 90.5v28l-4 738l-195 38l21 93h491v-72l-174 -59v-781q0 -542 -495 -542h-2q-295 0 -439.5 118.5t-144.5 378.5v826z" />
<glyph unicode="V" horiz-adv-x="1329" d="M-51 1341l20 93h494v-72l-154 -45l406 -1049l366 1043l-176 30l21 93h444v-72l-160 -57l-460 -1305h-142l-502 1303z" />
<glyph unicode="W" horiz-adv-x="2154" d="M0 1341l20 93h521v-72l-176 -49l299 -991l383 1112h116l350 -1117l342 992l-180 32l21 93h458v-72l-169 -53l-449 -1309h-127l-346 1102l-381 -1102h-125l-393 1305z" />
<glyph unicode="X" horiz-adv-x="1323" d="M-20 0v72l161 55l430 578l-387 598l-170 38l21 93h516v-72l-145 -41l307 -473l334 471l-144 22l21 93h419v-72l-157 -53l-406 -566l398 -612l159 -39l-20 -92h-498v72l139 39l-317 489l-358 -485l149 -23l-20 -92h-432z" />
<glyph unicode="Y" horiz-adv-x="1290" d="M-31 1341l21 93h502v-72l-144 -41l357 -557l339 553l-151 24l20 93h428v-72l-165 -57l-402 -652v-522l195 -39l-21 -92h-573v72l194 59v479l-440 693z" />
<glyph unicode="Z" horiz-adv-x="1249" d="M92 0v100l785 1221h-582l-78 -295l-102 21l2 387h999v-105l-780 -1216h633l75 288l103 -20v-381h-1055z" />
<glyph unicode="[" horiz-adv-x="686" d="M287 -305v1812h327v-92h-163v-1628h163v-92h-327z" />
<glyph unicode="\" horiz-adv-x="1224" d="M31 1434h170l942 -1756h-170z" />
<glyph unicode="]" horiz-adv-x="686" d="M72 -213h164v1628h-164v92h327v-1812h-327v92z" />
<glyph unicode="^" horiz-adv-x="2031" d="M410 821l503 645h205l504 -645h-113l-493 514l-494 -514h-112z" />
<glyph unicode="_" horiz-adv-x="1052" d="M-61 -182h1175v-156h-1175v156z" />
<glyph unicode="`" horiz-adv-x="1079" d="M231 1536h201l219 -344h-112z" />
<glyph unicode="a" horiz-adv-x="1099" d="M92 252q0 106 53.5 168.5t184.5 97.5q197 51 397 74v168q0 109 -57.5 160t-151.5 51q-113 0 -192 -29l-58 -233l-106 18v266q203 90 366 90q383 0 383 -325v-629l148 -35l-21 -94h-311v166q-61 -74 -167.5 -128t-194.5 -54q-115 0 -194 71.5t-79 196.5zM297 268 q0 -88 41 -121.5t113 -33.5q70 0 153.5 51t122.5 108v234q-172 -20 -262 -45q-168 -46 -168 -193z" />
<glyph unicode="b" horiz-adv-x="1224" d="M20 1487l365 49v-588q152 133 324 133q180 0 307 -139t127 -367q0 -297 -161 -449.5t-417 -152.5q-210 0 -364 80v1311l-170 33zM385 145q119 -59 219 -59q154 0 245 120t91 312q0 188 -80 297t-215 109q-117 0 -260 -90v-689z" />
<glyph unicode="c" horiz-adv-x="1019" d="M82 532q0 252 162 401.5t383 149.5q172 0 325 -96v-272l-102 -21l-57 242q-92 35 -160 35q-152 0 -249 -121t-97 -303q0 -180 89 -307t259 -127q166 0 299 100l45 -78q-164 -158 -383 -158q-217 0 -365.5 149.5t-148.5 405.5z" />
<glyph unicode="d" horiz-adv-x="1239" d="M82 498q0 254 156.5 413.5t365.5 159.5q129 0 242 -70v363l-170 33l-10 90l362 49v-1407l139 -35l-20 -94h-301v117q-145 -133 -320 -133q-178 0 -311 144t-133 370zM287 541q0 -186 68.5 -304t210 -118t280.5 123v608q-104 106 -228 106q-133 0 -232 -117.5t-99 -297.5z " />
<glyph unicode="e" horiz-adv-x="1105" d="M82 537q0 172 75.5 300t185.5 186t232 58q439 0 439 -532h-727q0 -199 102.5 -316.5t261.5 -117.5q145 0 301 100l45 -78q-198 -155 -412 -155h-3q-211 0 -355.5 149.5t-144.5 405.5zM293 659h516q0 152 -69.5 232t-170.5 80q-104 0 -188 -85.5t-88 -226.5z" />
<glyph unicode="f" horiz-adv-x="747" d="M72 0v61l178 62v792h-178v113h178l2 152q0 188 105.5 279t255 91t268.5 -69v-273l-103 -20l-57 225q-49 25 -109 25q-94 0 -136 -57.5t-42 -202.5v-150h273v-113h-273v-788l228 -29l-21 -98h-569z" />
<glyph unicode="g" horiz-adv-x="1196" d="M72 -233q0 131 178 247q-82 57 -82 156q0 55 39 111.5t106 97.5q-204 94 -204 313q0 197 124.5 295t309.5 98q170 0 274 -84q70 0 203 11q41 2 145 10v-141l-256 6q39 -80 39 -193q0 -190 -115.5 -277t-287.5 -87q-72 0 -131 14q-84 -61 -84 -135q0 -37 33.5 -59.5 t99.5 -24.5h385q123 -4 183.5 -63.5t60.5 -151.5q0 -186 -188.5 -301t-424.5 -115q-190 0 -298.5 68.5t-108.5 204.5zM260 -178q0 -209 307 -209q147 0 266 67.5t119 157.5q0 61 -43.5 87t-158.5 26h-244q-104 0 -178 26q-68 -80 -68 -155zM313 700q0 -117 57.5 -187.5 t178.5 -70.5q98 0 146 68t48 184q0 123 -55 203t-160 80q-102 0 -158.5 -78t-56.5 -199z" />
<glyph unicode="h" horiz-adv-x="1265" d="M41 0v61l180 62v1247l-170 33l-10 84l365 49v-625q66 80 165 126t189 46q309 0 309 -376l2 -580l164 -35l-21 -92h-485v61l158 62v543q0 145 -46 197t-151 52q-84 0 -165 -28.5t-119 -75.5v-684l153 -29l-20 -98h-498z" />
<glyph unicode="i" horiz-adv-x="641" d="M72 0v61l180 62v792l-166 31l-10 84l360 49v-952l154 -29l-21 -98h-497zM184 1378q53 90 144 142q90 -47 137 -138q-51 -88 -143 -141q-91 47 -138 137z" />
<glyph unicode="j" horiz-adv-x="577" d="M-174 -135l102 20l58 -223q59 -24 101 -24h3q45 0 76 23.5t43 69.5t16 87t4 98v999l-166 31l-10 84l361 49v-1167q0 -180 -104.5 -285.5t-252.5 -105.5q-123 0 -231 71v273zM164 1378q53 90 143 142q90 -47 137 -138q-51 -88 -143 -141q-90 47 -137 137z" />
<glyph unicode="k" horiz-adv-x="1157" d="M41 0v61l180 62v1249l-166 31l-10 84l361 49v-1026l395 401l-131 21l20 98h451v-61l-197 -74l-242 -238l340 -532l146 -27l-21 -98h-264l-336 526l-161 -159v-240l153 -29l-20 -98h-498z" />
<glyph unicode="l" horiz-adv-x="651" d="M61 0v61l181 62v1249l-166 31l-10 84l360 49v-1409l174 -29l-20 -98h-519z" />
<glyph unicode="m" horiz-adv-x="1908" d="M72 1030l362 49v-168q66 82 162 127t186 45q193 0 265 -213q68 96 167 154.5t197 58.5q131 0 216 -99t85 -288v-569l166 -35l-20 -92h-478v61l148 62v573q0 109 -60.5 164t-146.5 55q-147 0 -248 -133v-655l158 -35l-21 -92h-469v61l148 62v573q0 111 -56.5 165 t-146.5 54q-68 0 -139.5 -28.5t-112.5 -75.5v-684l146 -29l-21 -98h-485v61l178 62v784l-170 33z" />
<glyph unicode="n" horiz-adv-x="1294" d="M72 1030l362 49v-168q66 80 165 126t189 46h2q302 0 310 -376v-580l164 -35l-21 -92h-485v61l157 62v543q0 145 -46 197t-150 52q-84 0 -165 -28.5t-120 -75.5v-684l156 -29l-21 -98h-495v61l178 62v784l-170 33z" />
<glyph unicode="o" horiz-adv-x="1216" d="M82 528.5q0 223.5 138.5 390t371.5 166.5q260 0 401.5 -160.5t141.5 -384t-138.5 -390t-371.5 -166.5q-260 0 -401.5 160.5t-141.5 384zM287 551q0 -193 80 -324t256 -131q154 0 230.5 123t76.5 299q0 193 -80 324t-256 131q-154 0 -230.5 -123t-76.5 -299z" />
<glyph unicode="p" horiz-adv-x="1236" d="M51 -399l178 61v1245l-166 33l-10 90l361 49v-133q152 137 323 137q176 0 297 -145t121 -373q0 -244 -135 -406.5t-354 -162.5q-117 0 -252 53v-383l196 -28l-20 -99h-539v62zM414 203q139 -94 250 -94q133 0 210.5 120.5t77.5 300.5q0 184 -72.5 291t-201.5 107 q-127 -1 -264 -101v-624z" />
<glyph unicode="q" horiz-adv-x="1177" d="M82 451q0 291 160.5 458.5t429.5 167.5q145 0 327 -59l2 -1352l156 -28l-20 -99h-529v62l209 61l-2 440q-137 -125 -307 -125q-174 0 -300 131.5t-126 342.5zM287 479q0 -162 81 -262t205 -100q99 0 242 94v731q-82 23 -160 23q-186 0 -277 -135.5t-91 -350.5z" />
<glyph unicode="r" horiz-adv-x="907" d="M72 1030l362 49v-168q158 168 318 168h4q65 0 131 -28v-275l-107 -18l-55 155q-10 2 -41 2q-68 0 -138.5 -28.5t-111.5 -75.5v-684l189 -29l-21 -98h-528v61l178 62v784l-170 33z" />
<glyph unicode="s" horiz-adv-x="942" d="M96 324l107 18l55 -203q111 -47 195 -47q96 0 152 43q59 45 59 136q0 63 -54 107q-56 46 -136.5 77.5t-161.5 67.5t-138 103.5t-57 161.5q0 100 67.5 169t159.5 95.5t201 26.5q197 0 264 -67v-256l-107 -19l-55 209q-68 20 -141 21q-199 0 -199 -148q0 -68 56.5 -117 t137.5 -80.5t161.5 -67.5t137 -101.5t56.5 -155.5q0 -168 -114.5 -242.5t-290.5 -74.5h-6q-194 0 -349 69v275z" />
<glyph unicode="t" horiz-adv-x="804" d="M61 915v72l172 62l72 225h103v-246h327v-113h-327v-602q0 -117 21.5 -155.5t96.5 -38.5h3q91 0 206 71l39 -49q-47 -74 -137 -120t-182 -46q-231 0 -232 289v651h-162z" />
<glyph unicode="u" horiz-adv-x="1304" d="M61 975l21 92h328v-666q0 -147 46 -198t150 -51q84 0 165 28.5t120 75.5v684l-156 29l21 98h317v-940l166 -37l-22 -90h-326v156q-66 -80 -165 -126t-189 -46h-2q-308 0 -310 376v580z" />
<glyph unicode="v" horiz-adv-x="1124" d="M-10 973l20 92h471v-61l-147 -52l276 -704l279 698l-146 21l21 98h391v-61l-147 -62l-375 -942h-121l-375 946z" />
<glyph unicode="w" horiz-adv-x="1662" d="M-10 973l20 92h469v-61l-160 -52l261 -673l251 786h84l299 -778l179 659l-142 21l21 98h391v-61l-156 -62l-254 -942h-114l-289 752l-242 -752h-110l-359 946z" />
<glyph unicode="x" horiz-adv-x="1179" d="M31 0v61l149 52l316 422l-281 403l-158 35l21 92h463v-61l-121 -37l211 -303l217 286l-115 17l21 98h391v-61l-166 -64l-281 -373l306 -438l165 -37l-20 -92h-457v61l109 37l-238 340l-244 -327l136 -13l-21 -98h-403z" />
<glyph unicode="y" horiz-adv-x="1093" d="M-10 973l20 92h439v-61l-123 -52l254 -628l12 -58l282 680l-124 21l20 98h365v-61l-134 -60l-180 -428l-145 -340q-137 -346 -191 -440q-113 -207 -319 -207q-63 0 -131 20l57 170q59 -14 121 -14q31 0 55.5 4t45.5 17l33 22q13 8 29 34l24 36q6 10 26 47l25 49 q41 100 49 121l-369 903z" />
<glyph unicode="z" horiz-adv-x="1026" d="M92 0v59l588 893h-424l-55 -219l-107 19l-2 313h844v-59l-590 -893h436l56 217l106 -19v-311h-852z" />
<glyph unicode="{" horiz-adv-x="874" d="M102 621h84q145 0 146 170v380q0 57 9 103.5t25.5 77t39 55.5t49 37t57.5 21.5t62 11.5l64 4q16 1 31.5 1t31.5 -1h30v-66q-94 0 -161.5 -44t-67.5 -140v-414q0 -94 -53.5 -157.5t-90.5 -71.5q37 -8 90.5 -72.5t53.5 -157.5v-413q0 -76 59.5 -131.5t169.5 -55.5v-65 q-33 -3 -64 -3q-335 0 -335 312v381q0 170 -146 170h-84v68z" />
<glyph unicode="|" horiz-adv-x="964" d="M410 -502v2091h145v-2091h-145z" />
<glyph unicode="}" horiz-adv-x="874" d="M102 -242q111 0 170.5 55.5t59.5 131.5v413q0 92 53 157t90 73q-37 8 -90 71.5t-53 157.5v414q0 96 -67.5 140t-162.5 44v66q168 0 227 -17q173 -50 173 -293v-380q0 -170 145 -170h84v-68h-84q-145 0 -145 -170v-381q0 -312 -336 -312q-31 0 -64 3v65z" />
<glyph unicode="~" horiz-adv-x="1331" d="M139 596q20 20 109.5 78.5t144.5 75.5q30 11 69 11q96 0 249 -69q16 -6 48 -20.5t52 -22.5t45 -13t43 -3q20 2 111 49l82 45l77 -76q-20 -20 -112 -80.5t-148 -76.5q-33 -11 -73 -11q-100 0 -246 68q-16 6 -47 20.5t-51.5 22.5t-46 13t-44.5 3q-41 -14 -108 -49l-82 -45z " />
<glyph unicode="&#xa1;" horiz-adv-x="747" d="M225 1331q49 96 146 146q94 -51 151 -150q-51 -94 -145 -145q-99 51 -152 149zM256 92l63 932h113l66 -934q-25 -45 -48.5 -68.5t-70.5 -50.5q-80 49 -123 121z" />
<glyph unicode="&#xa2;" horiz-adv-x="999" d="M72 537q0 244 129 385t329 161v142h103v-140q164 -10 309 -94v-282l-102 -11l-52 201q-37 63 -155 72v-858q166 4 291 100l45 -78q-147 -137 -336 -153v-140h-103v138q-199 18 -328.5 166.5t-129.5 390.5zM272 541q0 -180 73 -284.5t185 -131.5v842q-258 -39 -258 -426z " />
<glyph unicode="&#xa3;" horiz-adv-x="1140" d="M61 0v72l195 59q84 127 84 287q0 78 -27 211h-192v112h170q-35 158 -35 252q0 115 37 200t101.5 132t140 69.5t161.5 22.5q207 0 346 -94v-272l-102 -21l-57 227q-53 47 -176 48q-106 0 -177 -72t-71 -217q0 -94 28 -275h396v-112h-379q12 -111 12 -162q0 -207 -119 -354 h570l43 178l86 18v-309h-1035z" />
<glyph unicode="&#xa4;" horiz-adv-x="1087" d="M92 266l150 148q-74 100 -74 221q0 113 70 215l-146 145l92 92l148 -145q94 66 209 66q119 0 213 -68l149 147l92 -92l-149 -149q65 -93 65 -208q0 -126 -69 -220l153 -152l-92 -92l-155 154q-90 -63 -207 -64q-115 0 -203 60l-154 -150zM303 635q0 -98 69.5 -167 t168 -69t167 69t68.5 167t-68.5 167.5t-167 69.5t-168 -69.5t-69.5 -167.5z" />
<glyph unicode="&#xa5;" horiz-adv-x="1249" d="M-31 1341l21 93h471v-72l-133 -41l358 -561l344 557l-121 24l21 93h360v-72l-135 -57l-401 -652v-86h297v-82h-297v-102h297v-82h-297v-170l194 -39l-20 -92h-574v72l195 59v170h-295v82h295v102h-295v82h295v43l-440 693z" />
<glyph unicode="&#xa6;" horiz-adv-x="1144" d="M489 391h146v-788h-146v788zM489 616v789h146v-789h-146z" />
<glyph unicode="&#xa7;" horiz-adv-x="1333" d="M248 625q0 98 35.5 167.5t122.5 137.5q-123 123 -123 268q0 100 78.5 169t180 95.5t210.5 26.5q197 0 264 -68v-245l-107 -9l-55 197q-68 20 -141 20q-94 0 -169 -38.5t-75 -116.5q0 -59 60.5 -122t148.5 -122l177 -123q89 -63 155.5 -148t72.5 -175q2 -23 2 -58 q0 -98 -35.5 -168.5t-121.5 -138.5q123 -127 123 -268q0 -100 -79 -169t-180.5 -95.5t-209.5 -26.5q-197 0 -265 68v245l107 9l55 -197q68 -20 142 -21q94 0 168.5 39t74.5 117q0 59 -60.5 121.5t-148.5 122.5l-177 123q-89 63 -155.5 148t-72.5 175q-2 23 -2 60zM406 684 q0 -66 47 -129t103 -104t153.5 -106.5t148.5 -106.5q45 45 57.5 84t12.5 98q0 84 -62.5 152.5t-201 160.5t-189.5 133q-43 -47 -56 -86t-13 -96z" />
<glyph unicode="&#xa8;" horiz-adv-x="761" d="M39 1348q47 86 133 131q82 -45 127 -127q-51 -86 -133 -131q-84 43 -127 127zM471 1348q47 86 133 131q82 -45 127 -127q-51 -86 -133 -131q-84 43 -127 127z" />
<glyph unicode="&#xa9;" horiz-adv-x="1843" d="M133 741.5q0 323.5 230.5 557t558 233.5t558 -233.5t230.5 -557t-230.5 -557t-558 -233.5t-558 233.5t-230.5 557zM262 741.5q0 -276.5 190.5 -480.5t469.5 -204q276 0 466.5 204t190.5 480.5t-190.5 480t-466.5 203.5q-279 0 -469.5 -203.5t-190.5 -480zM512 750 q0 190 140.5 316t322.5 126q104 0 221 -53l-4 -236l-59 -8l-43 166q-78 31 -142 31q-111 0 -178.5 -86t-67.5 -256q0 -180 70 -261t184 -81q66 0 136 16l53 199l61 -11l2 -235q-137 -66 -278 -66q-176 0 -297 116t-121 323z" />
<glyph unicode="&#xaa;" horiz-adv-x="686" d="M51 961q0 63 33 100t111 59q109 29 249 45v101q0 63 -41 95t-96 32q-57 0 -108 -29l-35 -141l-70 12v160q2 2 22.5 11t25.5 12t23.5 11.5t27 10.5t27 7t30.5 7t29.5 4t35.5 2q115 0 187.5 -47t72.5 -149v-379l91 -23l-13 -55h-209v100q-35 -43 -104.5 -76.5t-122.5 -33.5 q-72 0 -119 43t-47 121zM184 969q0 -55 24.5 -75t70.5 -20q43 0 93 31t72 66v141q-98 -10 -157 -29q-103 -24 -103 -114z" />
<glyph unicode="&#xab;" horiz-adv-x="1040" d="M82 524v21q84 80 202.5 222t198.5 263l58 -24q-14 -63 -99.5 -216t-162.5 -231l-3 -2v-4v-4q0 -2 3 -2q76 -76 160.5 -245t101.5 -239l-58 -24q-80 121 -198.5 263t-202.5 222zM489 524v21q88 84 205 226t187 259l57 -24q-14 -63 -99 -216t-163 -231l-2 -2v-4v-4 q0 -2 2 -2q76 -76 161 -245t101 -239l-57 -24q-70 117 -186.5 259t-205.5 226z" />
<glyph unicode="&#xac;" horiz-adv-x="1325" d="M68 700v146h1175v-527h-145v381h-1030z" />
<glyph unicode="&#xad;" horiz-adv-x="634" d="M49 479v146h535v-146h-535z" />
<glyph unicode="&#xae;" horiz-adv-x="1843" d="M133 741.5q0 323.5 230.5 557t558 233.5t558 -233.5t230.5 -557t-230.5 -557t-558 -233.5t-558 233.5t-230.5 557zM262 741.5q0 -276.5 190.5 -480.5t469.5 -204q276 0 466.5 204t190.5 480.5t-190.5 480t-466.5 203.5q-279 0 -469.5 -203.5t-190.5 -480zM551 326v51 l113 43v657l-113 43l16 58h330q346 0 346 -250q0 -145 -151 -211l168 -297l96 -35l-17 -59h-194l-193 376h-143v-282l113 -35l-9 -59h-362zM809 797h88q43 0 69.5 4t57.5 16t46 44t15 83q0 39 -12 65.5t-25.5 40t-47 19.5t-46.5 6h-57h-88v-278z" />
<glyph unicode="&#xaf;" horiz-adv-x="1073" d="M215 1280v145h643v-145h-643z" />
<glyph unicode="&#xb0;" horiz-adv-x="688" d="M61 1190q0 119 82 202t199 83q119 0 202 -83t83 -202q0 -117 -83 -199t-202 -82q-117 0 -199 82t-82 199zM168 1190q0 -74 50 -124t124 -50q76 0 127 50t51 124q0 76 -51 127t-127 51q-74 0 -124 -51t-50 -127z" />
<glyph unicode="&#xb1;" horiz-adv-x="1523" d="M246 45v145h1032v-145h-1032zM246 819v146h438v436h156v-436h438v-146h-438v-459h-156v459h-438z" />
<glyph unicode="&#xb2;" horiz-adv-x="698" d="M82 791l102 97l85 80l63 62q37 37 50 55.5t32.5 44t24.5 46t9.5 45t4.5 55.5q0 108 -137 108h-3q-68 0 -116 -36l-43 -134l-52 9v178q43 31 107.5 53.5t114.5 22.5q115 0 193.5 -52.5t78.5 -154.5q0 -29 -5 -53.5t-23 -52.5l-30 -50q-14 -20 -52 -58l-61 -60l-83 -78 l-96 -91h268l21 82l53 -8v-176h-506v66z" />
<glyph unicode="&#xb3;" horiz-adv-x="741" d="M102 766v190l62 11l37 -125q45 -31 125 -31q170 0 170 137q0 55 -29 86t-94 45h-68v72h62q110 23 110 125q0 108 -135 108q-78 0 -123 -28l-33 -123l-61 10v189q117 45 242 45q106 0 180 -44t74 -143q0 -66 -47.5 -110.5t-114.5 -63.5q180 -14 180 -170q0 -111 -86 -169 t-203 -58q-123 0 -248 47z" />
<glyph unicode="&#xb4;" horiz-adv-x="434" d="M31 1157l178 375h201l-267 -375h-112z" />
<glyph unicode="&#xb5;" horiz-adv-x="1333" d="M225 -459v1524h185v-664q0 -147 46 -198t150 -51q84 0 165 28.5t120 75.5v809h182v-938l166 -37l-22 -90h-326v135q-124 -151 -351 -151h-3q-72 0 -127 20v-463h-185z" />
<glyph unicode="&#xb6;" horiz-adv-x="1107" d="M115 1008q0 123 34.5 203.5t103.5 121.5t143.5 57.5t181.5 18.5h450v-63l-166 -62v-1532h-112v1575h-150v-774q-86 0 -151.5 10t-131 39t-107.5 78t-68.5 132t-26.5 196z" />
<glyph unicode="&#xb7;" horiz-adv-x="632" d="M143 621q53 98 152 149q94 -51 145 -145q-57 -98 -151 -150q-97 50 -146 146z" />
<glyph unicode="&#xb8;" horiz-adv-x="653" d="M133 -430q201 49 213 139q5 28 5 51q0 96 -91 115v156h113v-97q147 -20 147 -157q0 -80 -62.5 -142.5t-143.5 -91t-167 -35.5z" />
<glyph unicode="&#xb9;" horiz-adv-x="630" d="M102 1309v57q63 23 244 111h64v-662l118 -31l-10 -57h-366v47l124 41v531z" />
<glyph unicode="&#xba;" horiz-adv-x="808" d="M61 1096q0 170 85 274.5t260 104.5q172 0 257 -104.5t85 -274.5q0 -164 -85 -266.5t-255 -102.5q-174 0 -260.5 102.5t-86.5 266.5zM213 1098q0 -129 53 -211t154 -82q90 0 135 79t45 212t-51 217t-162 84q-96 0 -135 -78t-39 -221z" />
<glyph unicode="&#xbb;" horiz-adv-x="1040" d="M102 1006l58 24q70 -117 186.5 -259t204.5 -226v-21q-88 -84 -205 -226t-186 -259l-58 24q16 70 101.5 239t161.5 245v2q0 2 2 4l-1 2l-1 2v2q-78 78 -163 230.5t-100 216.5zM500 63q16 70 101 239t161 245v2q0 2 2 4l-1 2l-1 2v2q-78 78 -163 230.5t-99 216.5l57 24 q72 -115 192.5 -258t208.5 -227v-21q-88 -84 -208.5 -227t-192.5 -258z" />
<glyph unicode="&#xbc;" horiz-adv-x="1544" d="M51 1227v57q63 23 244 111h63v-662l119 -31l-10 -57h-367v47l125 41v531zM322 -66l790 1457h154l-791 -1457h-153zM885 156v49l422 547h75v-508h101v-88h-101v-78l101 -31l-13 -47h-325v37l115 41v78h-375zM1036 244h224v288z" />
<glyph unicode="&#xbd;" horiz-adv-x="1628" d="M51 1227v57q63 23 244 111l63 -4v-658l119 -31l-10 -57h-367v47l125 41v531zM322 -66l790 1457h154l-791 -1457h-153zM1053 66l102 97l85 80l62 62q37 37 50 55l33 44q20 26 25 46.5t9 45t4 55.5q0 108 -136 108h-3q-68 0 -117 -36l-43 -134l-51 9v178q43 31 107.5 53.5 t113.5 22.5q115 0 194 -52.5t79 -154.5q0 -29 -5.5 -53.5t-22.5 -53t-30.5 -49t-51.5 -58.5l-61 -61l-84 -78l-95 -90h268l20 82l54 -8v-176h-506v66z" />
<glyph unicode="&#xbe;" horiz-adv-x="1607" d="M51 694v191l62 10l37 -125q45 -31 124 -31q170 0 170 138q0 55 -28.5 85.5t-93.5 45.5h-68v71h61q111 23 111 127q0 106 -135 107q-78 0 -123 -29l-33 -123l-61 10v189q117 45 241 45q106 0 180 -44t74 -142q0 -66 -47 -111t-114 -64q180 -14 180 -170q0 -111 -86 -169 t-203 -58q-123 0 -248 47zM301 -66l791 1457h153l-790 -1457h-154zM1032 66l102 97l85 80l63 62q37 37 50 55l33 44q19 26 24.5 46.5t9.5 45t4 55.5q0 108 -136 108h-3q-68 0 -117 -36l-43 -134l-51 9v178q43 31 107.5 53.5t113.5 22.5q115 0 193.5 -52.5t78.5 -154.5 q0 -29 -5 -53.5t-23 -53.5l-30 -48q-13 -21 -51 -59l-61 -61l-84 -78l-96 -90h268l21 82l53 -8v-176h-506v66z" />
<glyph unicode="&#xbf;" horiz-adv-x="980" d="M117 66l63 286l101 -14l16 -213q63 -33 133 -33q86 0 146.5 51.5t60.5 145.5q0 63 -52.5 130.5t-114.5 116t-114.5 113t-52.5 123.5q0 109 57.5 169t151.5 60q139 0 186 -131l-73 -57q-28 74 -80 74q-90 0 -90 -101q0 -47 40 -85.5t96 -74.5t111.5 -79t95.5 -118t40 -173 q0 -139 -101.5 -209t-255.5 -70q-205 0 -364 89zM344 1323q49 96 145 145q94 -51 152 -149q-51 -94 -145 -145q-99 51 -152 149z" />
<glyph unicode="&#xc0;" horiz-adv-x="1374" d="M-18 0v72l145 51l494 1311h149l500 -1307l143 -35l-20 -92h-471v72l145 45l-131 334h-563l-125 -328l166 -31l-21 -92h-411zM315 1905h201l219 -344h-112zM414 563h481l-242 633z" />
<glyph unicode="&#xc1;" horiz-adv-x="1380" d="M-20 0v72l145 51l493 1311h150l500 -1307l143 -35l-20 -92h-471v72l145 45l-131 334h-563l-125 -328l166 -31l-21 -92h-411zM412 563h481l-242 633zM643 1526l178 375h201l-266 -375h-113z" />
<glyph unicode="&#xc2;" horiz-adv-x="1380" d="M-20 0v72l145 51l493 1311h150l500 -1307l143 -35l-20 -92h-471v72l145 45l-131 334h-563l-125 -328l166 -31l-21 -92h-411zM385 1536l238 367v2h145l-2 -2l240 -367h-113l-199 268l-196 -268h-113zM412 563h481l-242 633z" />
<glyph unicode="&#xc3;" horiz-adv-x="1380" d="M-20 0v72l145 51l493 1311h150l500 -1307l143 -35l-20 -92h-471v72l145 45l-131 334h-563l-125 -328l166 -31l-21 -92h-411zM332 1659q16 27 84.5 101.5t107.5 90.5q22 11 50 11q70 0 176 -70q8 -4 32.5 -20.5t36.5 -23.5t30.5 -13t33.5 -4q18 2 78 61l57 55l63 -67 q-16 -27 -84.5 -101.5t-107.5 -91.5q-22 -11 -49 -11q-70 0 -176 71q-8 4 -33 20l-37 23q-12 8 -30.5 14t-33.5 4q-29 -12 -77 -61l-58 -56zM412 563h481l-242 633z" />
<glyph unicode="&#xc4;" horiz-adv-x="1380" d="M-20 0v72l145 51l493 1311h150l500 -1307l143 -35l-20 -92h-471v72l145 45l-131 334h-563l-125 -328l166 -31l-21 -92h-411zM354 1716q47 86 133 131q82 -45 127 -127q-51 -86 -133 -131q-84 43 -127 127zM412 563h481l-242 633zM786 1716q47 86 134 131q82 -45 127 -127 q-51 -86 -134 -131q-84 43 -127 127z" />
<glyph unicode="&#xc5;" horiz-adv-x="1380" d="M-20 0v72l145 51l493 1311h150l500 -1307l143 -35l-20 -92h-471v72l145 45l-131 334h-563l-125 -328l166 -31l-21 -92h-411zM412 563h481l-242 633zM455 1749q0 100 68.5 170t169 70t170 -70t69.5 -170t-69.5 -169t-170 -69t-169 69t-68.5 169zM555 1749q0 -158 137 -158 q139 0 139 158q0 160 -139 160q-137 0 -137 -160z" />
<glyph unicode="&#xc6;" horiz-adv-x="1871" d="M-102 0v72l135 51l778 1194l-123 24l21 93h1048v-347l-102 -10l-66 244h-438v-520l285 8l55 137h72v-403h-58l-69 135l-285 10v-575h477l66 237l106 -12v-338h-1048v72l194 59v516h-436l-342 -524l166 -31l-21 -92h-415zM584 760h362v557z" />
<glyph unicode="&#xc7;" horiz-adv-x="1343" d="M92 715q0 223 107.5 395t279.5 259t377 87q195 0 377 -84v-346l-103 -20l-69 288q-78 49 -240 49q-215 0 -364.5 -162.5t-149.5 -465.5q0 -324 148.5 -471.5t384.5 -147.5q119 0 233 56l74 313l104 -21v-346q-236 -116 -456 -116h-4q-295 0 -497 193.5t-202 539.5z M559 -430q201 49 213 139q5 28 5 51q0 96 -91 115v156h113v-97q147 -20 147 -157q0 -80 -62.5 -142.5t-143.5 -91t-167 -35.5z" />
<glyph unicode="&#xc8;" horiz-adv-x="1273" d="M72 0v72l194 59v1172l-194 38l20 93h1047v-336l-103 -21l-65 244h-500v-520l346 8l55 137l72 -20v-363l-57 -20l-70 135l-346 10v-575h539l65 237l107 -22v-328h-1110zM309 1905h201l219 -344h-113z" />
<glyph unicode="&#xc9;" horiz-adv-x="1273" d="M72 0v72l194 59v1172l-194 38l20 93h1047v-336l-103 -21l-65 244h-500v-520l346 8l55 137l72 -20v-363l-57 -20l-70 135l-346 10v-575h539l65 237l107 -22v-328h-1110zM598 1518l168 309h201l-256 -309h-113z" />
<glyph unicode="&#xca;" horiz-adv-x="1273" d="M72 0v72l194 59v1172l-194 38l20 93h1047v-336l-103 -21l-65 244h-500v-520l346 8l55 137l72 -20v-363l-57 -20l-70 135l-346 10v-575h539l65 237l107 -22v-328h-1110zM362 1536l238 367v2h145l-2 -2l240 -367h-113l-198 268l-197 -268h-113z" />
<glyph unicode="&#xcb;" horiz-adv-x="1273" d="M72 0v72l194 59v1172l-194 38l20 93h1047v-336l-103 -21l-65 244h-500v-520l346 8l55 137l72 -20v-363l-57 -20l-70 135l-346 10v-575h539l65 237l107 -22v-328h-1110zM274 1716q47 86 134 131q82 -45 127 -127q-51 -86 -134 -131q-84 43 -127 127zM707 1716 q47 86 133 131q82 -45 127 -127q-51 -86 -133 -131q-84 43 -127 127z" />
<glyph unicode="&#xcc;" horiz-adv-x="737" d="M4 1905h201l219 -344h-113zM72 0v72l194 59v1172l-194 38l20 93h574v-72l-195 -59v-1172l195 -39l-21 -92h-573z" />
<glyph unicode="&#xcd;" horiz-adv-x="737" d="M72 0v72l194 59v1172l-194 38l20 93h574v-72l-195 -59v-1172l195 -39l-21 -92h-573zM319 1526l179 375h200l-266 -375h-113z" />
<glyph unicode="&#xce;" horiz-adv-x="737" d="M68 1536l237 367v2h146l-2 -2l239 -367h-113l-198 268l-197 -268h-112zM72 0v72l194 59v1172l-194 38l20 93h574v-72l-195 -59v-1172l195 -39l-21 -92h-573z" />
<glyph unicode="&#xcf;" horiz-adv-x="737" d="M23 1716q47 86 133 131q82 -45 127 -127q-51 -86 -133 -131q-84 43 -127 127zM72 0v72l194 59v1172l-194 38l20 93h574v-72l-195 -59v-1172l195 -39l-21 -92h-573zM455 1716q47 86 133 131q82 -45 127 -127q-51 -86 -133 -131q-84 43 -127 127z" />
<glyph unicode="&#xd0;" horiz-adv-x="1482" d="M72 0v72l194 59v547h-192v133h192v492l-194 38l20 93h584q342 0 528.5 -205t186.5 -516q0 -307 -190.5 -510t-524.5 -203h-604zM471 113h170q252 0 393.5 160.5t141.5 439.5q0 289 -131.5 448.5t-403.5 159.5h-170v-510h215v-133h-215v-565z" />
<glyph unicode="&#xd1;" horiz-adv-x="1595" d="M61 0v72l195 59v1172l-195 38l21 93h297l838 -1112v981l-193 38l20 93h490v-72l-195 -59v-1303h-122l-838 1114v-983l194 -39l-20 -92h-492zM424 1659q16 27 85 101.5t107 90.5q22 11 50 11q70 0 176 -70q8 -4 32.5 -20.5t37 -23.5t31 -13t32.5 -4q18 2 78 61l57 55 l64 -67q-16 -27 -85 -101.5t-108 -91.5q-22 -11 -49 -11q-70 0 -176 71q-8 4 -33 20l-37 23q-12 8 -30.5 14t-32.5 4q-29 -12 -78 -61l-58 -56z" />
<glyph unicode="&#xd2;" d="M92 719q0 317 188.5 530t503.5 213q217 0 379 -106.5t239 -273.5t77 -367q0 -317 -188.5 -530.5t-504.5 -213.5q-219 0 -379.5 106.5t-237.5 273.5t-77 368zM307 754q0 -178 50.5 -324.5t167 -246t284.5 -99.5q199 0 327 176t128 420q0 178 -50.5 324.5t-167 246 t-284.5 99.5q-199 0 -327 -176.5t-128 -419.5zM453 1905h200l219 -344h-112z" />
<glyph unicode="&#xd3;" d="M92 719q0 317 188.5 530t503.5 213q217 0 379 -106.5t239 -273.5t77 -367q0 -317 -188.5 -530.5t-504.5 -213.5q-219 0 -379.5 106.5t-237.5 273.5t-77 368zM307 754q0 -178 50.5 -324.5t167 -246t284.5 -99.5q199 0 327 176t128 420q0 178 -50.5 324.5t-167 246 t-284.5 99.5q-199 0 -327 -176.5t-128 -419.5zM719 1526l178 375h201l-267 -375h-112z" />
<glyph unicode="&#xd4;" d="M92 719q0 317 188.5 530t503.5 213q217 0 379 -106.5t239 -273.5t77 -367q0 -317 -188.5 -530.5t-504.5 -213.5q-219 0 -379.5 106.5t-237.5 273.5t-77 368zM307 754q0 -178 50.5 -324.5t167 -246t284.5 -99.5q199 0 327 176t128 420q0 178 -50.5 324.5t-167 246 t-284.5 99.5q-199 0 -327 -176.5t-128 -419.5zM465 1536l237 367v2h146l-2 -2l239 -367h-112l-199 268l-196 -268h-113z" />
<glyph unicode="&#xd5;" d="M92 719q0 317 188.5 530t503.5 213q217 0 379 -106.5t239 -273.5t77 -367q0 -317 -188.5 -530.5t-504.5 -213.5q-219 0 -379.5 106.5t-237.5 273.5t-77 368zM307 754q0 -178 50.5 -324.5t167 -246t284.5 -99.5q199 0 327 176t128 420q0 178 -50.5 324.5t-167 246 t-284.5 99.5q-199 0 -327 -176.5t-128 -419.5zM401 1659q16 27 85 101.5t108 90.5q22 11 50 11q70 0 175 -70q8 -4 33 -20.5t37 -23.5t30.5 -13t32.5 -4q18 2 78 61l57 55l64 -67q-16 -27 -85 -101.5t-108 -91.5q-22 -11 -49 -11q-70 0 -176 71q-8 4 -32.5 20t-37 23.5 t-31 13.5t-32.5 4q-29 -12 -78 -61l-57 -56z" />
<glyph unicode="&#xd6;" d="M92 719q0 317 188.5 530t503.5 213q217 0 379 -106.5t239 -273.5t77 -367q0 -317 -188.5 -530.5t-504.5 -213.5q-219 0 -379.5 106.5t-237.5 273.5t-77 368zM307 754q0 -178 50.5 -324.5t167 -246t284.5 -99.5q199 0 327 176t128 420q0 178 -50.5 324.5t-167 246 t-284.5 99.5q-199 0 -327 -176.5t-128 -419.5zM430 1716q47 86 133 131q82 -45 127 -127q-51 -86 -133 -131q-84 43 -127 127zM862 1716q47 86 133 131q82 -45 127 -127q-51 -86 -133 -131q-84 43 -127 127z" />
<glyph unicode="&#xd7;" horiz-adv-x="1196" d="M72 1018l104 106l430 -415l400 413l104 -102l-399 -412l413 -401l-104 -107l-414 400l-399 -412l-103 100l398 412z" />
<glyph unicode="&#xd8;" d="M92 719q0 317 188.5 530t503.5 213q166 0 308 -65l88 162l102 -52l-92 -170q141 -102 215 -266t74 -356q0 -317 -188.5 -530.5t-504.5 -213.5q-162 0 -297 60l-110 -205l-100 59l108 203q-143 102 -219 268t-76 363zM307 754q0 -326 160 -516l557 1032q-117 80 -262 80 q-199 0 -327 -176t-128 -420zM557 158q107 -74 252 -74q199 0 327 176t128 420q0 315 -154 508z" />
<glyph unicode="&#xd9;" horiz-adv-x="1542" d="M61 1341l21 93h573v-72l-194 -59v-828q0 -190 99 -286.5t288 -96.5q74 0 130 15.5t93 36t62.5 61.5t38 70.5t18.5 86t7 85t1 90.5v28l-4 738l-195 38l21 93h491v-72l-174 -59v-781q0 -542 -495 -542h-2q-295 0 -439.5 118.5t-144.5 378.5v826zM416 1905h200l220 -344 h-113z" />
<glyph unicode="&#xda;" horiz-adv-x="1542" d="M61 1341l21 93h573v-72l-194 -59v-828q0 -190 99 -286.5t288 -96.5q74 0 130 15.5t93 36t62.5 61.5t38 70.5t18.5 86t7 85t1 90.5v28l-4 738l-195 38l21 93h491v-72l-174 -59v-781q0 -542 -495 -542h-2q-295 0 -439.5 118.5t-144.5 378.5v826zM692 1526l178 375h201 l-266 -375h-113z" />
<glyph unicode="&#xdb;" horiz-adv-x="1542" d="M61 1341l21 93h573v-72l-194 -59v-828q0 -190 99 -286.5t288 -96.5q74 0 130 15.5t93 36t62.5 61.5t38 70.5t18.5 86t7 85t1 90.5v28l-4 738l-195 38l21 93h491v-72l-174 -59v-781q0 -542 -495 -542h-2q-295 0 -439.5 118.5t-144.5 378.5v826zM449 1536l237 367v2h145 l-2 -2l240 -367h-113l-198 268l-197 -268h-112z" />
<glyph unicode="&#xdc;" horiz-adv-x="1542" d="M61 1341l21 93h573v-72l-194 -59v-828q0 -190 99 -286.5t288 -96.5q74 0 130 15.5t93 36t62.5 61.5t38 70.5t18.5 86t7 85t1 90.5v28l-4 738l-195 38l21 93h491v-72l-174 -59v-781q0 -542 -495 -542h-2q-295 0 -439.5 118.5t-144.5 378.5v826zM424 1716q47 86 133 131 q82 -45 127 -127q-51 -86 -133 -131q-84 43 -127 127zM856 1716q47 86 133 131q82 -45 127 -127q-51 -86 -133 -131q-84 43 -127 127z" />
<glyph unicode="&#xdd;" horiz-adv-x="1290" d="M-31 1341l21 93h502v-72l-144 -41l357 -557l339 553l-151 24l20 93h428v-72l-165 -57l-402 -652v-522l195 -39l-21 -92h-573v72l194 59v479l-440 693zM647 1526l178 375h201l-266 -375h-113z" />
<glyph unicode="&#xde;" horiz-adv-x="1161" d="M72 0v72l194 59v1172l-194 38l20 93h574v-72l-195 -59v-146h152q238 0 372.5 -104.5t134.5 -288.5q0 -180 -126.5 -310t-360.5 -130h-172v-193l236 -39l-21 -92h-614zM471 436h90q193 0 279 81t86 245q0 117 -91.5 199.5t-232.5 82.5h-131v-608z" />
<glyph unicode="&#xdf;" horiz-adv-x="1347" d="M20 0v61l179 62l2 1057q0 193 124 281.5t320 88.5q188 0 301 -89t113 -253q0 -106 -70 -204q-128 -47 -165 -81q-46 -42 -46 -104q0 -68 56.5 -117t137.5 -80.5t161.5 -67.5t137 -101.5t56.5 -155.5q0 -168 -114.5 -242.5t-290.5 -74.5q-197 0 -355 69v275l107 18 l55 -203q111 -47 195 -47q96 0 153.5 43t57.5 131q0 66 -56.5 112t-136.5 77.5t-161 67.5t-137 103.5t-56 161.5q0 100 72.5 169t175.5 104q30 40 30 144v7q0 96 -61.5 163t-179.5 67q-104 0 -173 -63.5t-69 -200.5v-1178h-363z" />
<glyph unicode="&#xe0;" horiz-adv-x="1099" d="M92 252q0 106 53.5 168.5t184.5 97.5q197 51 397 74v168q0 109 -57.5 160t-151.5 51q-113 0 -192 -29l-58 -233l-106 18v266q203 90 366 90q383 0 383 -325v-629l148 -35l-21 -94h-311v166q-61 -74 -167.5 -128t-194.5 -54q-115 0 -194 71.5t-79 196.5zM193 1536h200 l219 -344h-112zM297 268q0 -88 41 -121.5t113 -33.5q70 0 153.5 51t122.5 108v234q-172 -20 -262 -45q-168 -46 -168 -193z" />
<glyph unicode="&#xe1;" horiz-adv-x="1099" d="M92 252q0 106 53.5 168.5t184.5 97.5q197 51 397 74v168q0 109 -57.5 160t-151.5 51q-113 0 -192 -29l-58 -233l-106 18v266q203 90 366 90q383 0 383 -325v-629l148 -35l-21 -94h-311v166q-61 -74 -167.5 -128t-194.5 -54q-115 0 -194 71.5t-79 196.5zM297 268 q0 -88 41 -121.5t113 -33.5q70 0 153.5 51t122.5 108v234q-172 -20 -262 -45q-168 -46 -168 -193zM455 1192l219 344h200l-307 -344h-112z" />
<glyph unicode="&#xe2;" horiz-adv-x="1099" d="M92 252q0 106 53.5 168.5t184.5 97.5q197 51 397 74v168q0 109 -57.5 160t-151.5 51q-113 0 -192 -29l-58 -233l-106 18v266q203 90 366 90q383 0 383 -325v-629l148 -35l-21 -94h-311v166q-61 -74 -167.5 -128t-194.5 -54q-115 0 -194 71.5t-79 196.5zM217 1167l238 367 v2h145l-2 -2l240 -367h-113l-199 269l-196 -269h-113zM297 268q0 -88 41 -121.5t113 -33.5q70 0 153.5 51t122.5 108v234q-172 -20 -262 -45q-168 -46 -168 -193z" />
<glyph unicode="&#xe3;" horiz-adv-x="1099" d="M92 252q0 106 53.5 168.5t184.5 97.5q197 51 397 74v168q0 109 -57.5 160t-151.5 51q-113 0 -192 -29l-58 -233l-106 18v266q203 90 366 90q383 0 383 -325v-629l148 -35l-21 -94h-311v166q-61 -74 -167.5 -128t-194.5 -54q-115 0 -194 71.5t-79 196.5zM176 1290 q16 27 85 101.5t108 91.5q22 11 50 11q70 0 175 -71q8 -4 32.5 -20.5t37 -23.5t31 -13t32.5 -4q18 2 78 61l57 56l64 -68q-16 -27 -85 -101.5t-108 -90.5q-22 -11 -50 -11q-70 0 -175 70q-8 4 -32.5 20.5t-37 23.5t-31 13t-32.5 4q-29 -12 -78 -61l-57 -55zM297 268 q0 -88 41 -121.5t113 -33.5q70 0 153.5 51t122.5 108v234q-172 -20 -262 -45q-168 -46 -168 -193z" />
<glyph unicode="&#xe4;" horiz-adv-x="1099" d="M92 252q0 106 53.5 168.5t184.5 97.5q197 51 397 74v168q0 109 -57.5 160t-151.5 51q-113 0 -192 -29l-58 -233l-106 18v266q203 90 366 90q383 0 383 -325v-629l148 -35l-21 -94h-311v166q-61 -74 -167.5 -128t-194.5 -54q-115 0 -194 71.5t-79 196.5zM193 1348 q47 86 133 131q82 -45 127 -127q-51 -86 -134 -131q-83 43 -126 127zM297 268q0 -88 41 -121.5t113 -33.5q70 0 153.5 51t122.5 108v234q-172 -20 -262 -45q-168 -46 -168 -193zM625 1348q47 86 133 131q82 -45 127 -127q-51 -86 -133 -131q-84 43 -127 127z" />
<glyph unicode="&#xe5;" horiz-adv-x="1099" d="M92 252q0 106 53.5 168.5t184.5 97.5q197 51 397 74v168q0 109 -57.5 160t-151.5 51q-113 0 -192 -29l-58 -233l-106 18v266q203 90 366 90q383 0 383 -325v-629l148 -35l-21 -94h-311v166q-61 -74 -167.5 -128t-194.5 -54q-115 0 -194 71.5t-79 196.5zM297 268 q0 -88 41 -121.5t113 -33.5q70 0 153.5 51t122.5 108v234q-172 -20 -262 -45q-168 -46 -168 -193zM319 1417.5q0 100.5 69 170t169 69.5t170 -69.5t70 -170t-70 -169t-170 -68.5t-169 68.5t-69 169zM420 1417q0 -157 135 -157h2q139 0 139 157q0 160 -139 160 q-137 0 -137 -160z" />
<glyph unicode="&#xe6;" horiz-adv-x="1703" d="M92 252q0 106 53.5 168.5t184.5 97.5q197 51 397 74v168q0 109 -57.5 160t-151.5 51q-113 0 -192 -29l-58 -233l-106 18v266q203 90 366 90q231 0 308 -141q145 139 338 139q438 0 438 -532h-727q0 -199 102.5 -316.5t261.5 -117.5q145 0 301 100l45 -78 q-198 -155 -412 -155h-3q-270 0 -383 254q-49 -59 -74 -85t-83 -75t-126 -70.5t-149 -21.5q-115 0 -194 71.5t-79 196.5zM297 268q0 -88 41 -121.5t113 -33.5q70 0 153.5 51t122.5 108v234q-172 -20 -262 -45q-168 -46 -168 -193zM891 659h516q0 152 -69.5 232t-170.5 80 q-104 0 -188 -85.5t-88 -226.5z" />
<glyph unicode="&#xe7;" horiz-adv-x="1019" d="M82 532q0 252 162 401.5t383 149.5q172 0 325 -96v-272l-102 -21l-57 242q-92 35 -160 35q-152 0 -249 -121t-97 -303q0 -180 89 -307t259 -127q166 0 299 100l45 -78q-164 -158 -383 -158q-217 0 -365.5 149.5t-148.5 405.5zM383 -442q201 49 213 139q5 28 5 51 q0 96 -91 115v155h113v-96q147 -20 147 -158q0 -80 -62.5 -142t-143.5 -91t-167 -35z" />
<glyph unicode="&#xe8;" horiz-adv-x="1107" d="M82 537q0 172 75.5 300t185.5 186t232 58q439 0 439 -532h-727q0 -199 102.5 -316.5t261.5 -117.5q145 0 301 100l45 -78q-198 -155 -412 -155h-3q-211 0 -355.5 149.5t-144.5 405.5zM217 1536h201l219 -344h-113zM293 659h516q0 152 -69.5 232t-170.5 80 q-104 0 -188 -85.5t-88 -226.5z" />
<glyph unicode="&#xe9;" horiz-adv-x="1107" d="M82 537q0 172 75.5 300t185.5 186t232 58q439 0 439 -532h-727q0 -199 102.5 -316.5t261.5 -117.5q145 0 301 100l45 -78q-198 -155 -412 -155h-3q-211 0 -355.5 149.5t-144.5 405.5zM293 659h516q0 152 -69.5 232t-170.5 80q-104 0 -188 -85.5t-88 -226.5zM512 1157 l178 375h201l-266 -375h-113z" />
<glyph unicode="&#xea;" horiz-adv-x="1107" d="M82 537q0 172 75.5 300t185.5 186t232 58q439 0 439 -532h-727q0 -199 102.5 -316.5t261.5 -117.5q145 0 301 100l45 -78q-198 -155 -412 -155h-3q-211 0 -355.5 149.5t-144.5 405.5zM279 1167l237 369h146l-3 -2l240 -367h-113l-198 269l-197 -269h-112zM293 659h516 q0 152 -69.5 232t-170.5 80q-104 0 -188 -85.5t-88 -226.5z" />
<glyph unicode="&#xeb;" horiz-adv-x="1107" d="M82 537q0 172 75.5 300t185.5 186t232 58q439 0 439 -532h-727q0 -199 102.5 -316.5t261.5 -117.5q145 0 301 100l45 -78q-198 -155 -412 -155h-3q-211 0 -355.5 149.5t-144.5 405.5zM227 1348q47 86 133 131q82 -45 127 -127q-51 -86 -133 -131q-84 43 -127 127z M293 659h516q0 152 -69.5 232t-170.5 80q-104 0 -188 -85.5t-88 -226.5zM659 1348q47 86 134 131q82 -45 127 -127q-51 -86 -134 -131q-84 43 -127 127z" />
<glyph unicode="&#xec;" horiz-adv-x="641" d="M-20 1536h200l219 -344h-112zM72 0v61l180 62v792l-166 31l-10 84l360 49v-952l154 -29l-21 -98h-497z" />
<glyph unicode="&#xed;" horiz-adv-x="641" d="M72 0v61l180 62v792l-166 31l-10 84l360 49v-952l154 -29l-21 -98h-497zM285 1157l178 375h201l-267 -375h-112z" />
<glyph unicode="&#xee;" horiz-adv-x="641" d="M31 1167l237 367v2h146l-2 -2l239 -367h-112l-199 269l-197 -269h-112zM72 0v61l180 62v792l-166 31l-10 84l360 49v-952l154 -29l-21 -98h-497z" />
<glyph unicode="&#xef;" horiz-adv-x="641" d="M-6 1348q47 86 133 131q82 -45 127 -127q-51 -86 -133 -131q-84 43 -127 127zM72 0v61l180 62v792l-166 31l-10 84l360 49v-952l154 -29l-21 -98h-497zM426 1348q47 86 133 131q82 -45 127 -127q-51 -86 -133 -131q-84 43 -127 127z" />
<glyph unicode="&#xf0;" horiz-adv-x="1204" d="M82 528q0 227 143.5 392t386.5 165q106 0 236 -57q-4 88 -75 209t-159 168l-155 -129l-72 86l133 111q-61 31 -180 43q-66 4 -96 4v94l23 1q24 1 55.5 2t54.5 1q139 -6 250 -57l157 133l72 -86l-129 -107q172 -100 263 -309t91 -479q0 -340 -150.5 -534.5t-359.5 -194.5 q-236 0 -362.5 154.5t-126.5 389.5zM287 551q0 -209 72.5 -332t213.5 -123q90 0 155 62.5t94.5 167t42 208t12.5 218.5q-1 24 -7 122l-6 54q-98 45 -250 45q-164 0 -245.5 -121t-81.5 -301z" />
<glyph unicode="&#xf1;" horiz-adv-x="1294" d="M72 1030l362 49v-168q66 80 165 126t189 46h2q308 0 308 -376l2 -580l164 -35l-21 -92h-485v61l157 62v543q0 145 -46 197t-150 52q-84 0 -165 -28.5t-120 -75.5v-684l156 -29l-21 -98h-495v61l178 62v784l-170 33zM299 1290q16 27 85 101.5t108 91.5q22 11 50 11 q70 0 175 -71q8 -4 32.5 -20.5t37 -23.5t31 -13t32.5 -4q18 2 78 61l57 56l64 -68q-16 -27 -85 -101.5t-108 -90.5q-22 -11 -50 -11q-70 0 -175 70q-8 4 -33 20.5t-37 23.5t-30.5 13t-32.5 4q-29 -12 -78 -61l-58 -55z" />
<glyph unicode="&#xf2;" horiz-adv-x="1216" d="M82 528.5q0 223.5 138.5 390t371.5 166.5q260 0 401.5 -160.5t141.5 -384t-138.5 -390t-371.5 -166.5q-260 0 -401.5 160.5t-141.5 384zM244 1536h200l220 -344h-113zM287 551q0 -193 80 -324t256 -131q154 0 230.5 123t76.5 299q0 193 -80 324t-256 131 q-154 0 -230.5 -123t-76.5 -299z" />
<glyph unicode="&#xf3;" horiz-adv-x="1216" d="M82 528.5q0 223.5 138.5 390t371.5 166.5q260 0 401.5 -160.5t141.5 -384t-138.5 -390t-371.5 -166.5q-260 0 -401.5 160.5t-141.5 384zM287 551q0 -193 80 -324t256 -131q154 0 230.5 123t76.5 299q0 193 -80 324t-256 131q-154 0 -230.5 -123t-76.5 -299zM545 1157 l178 375h201l-267 -375h-112z" />
<glyph unicode="&#xf4;" horiz-adv-x="1216" d="M82 528.5q0 223.5 138.5 390t371.5 166.5q260 0 401.5 -160.5t141.5 -384t-138.5 -390t-371.5 -166.5q-260 0 -401.5 160.5t-141.5 384zM287 551q0 -193 80 -324t256 -131q154 0 230.5 123t76.5 299q0 193 -80 324t-256 131q-154 0 -230.5 -123t-76.5 -299zM295 1167 l237 367v2h146l-2 -2l239 -367h-112l-199 269l-196 -269h-113z" />
<glyph unicode="&#xf5;" horiz-adv-x="1216" d="M82 528.5q0 223.5 138.5 390t371.5 166.5q260 0 401.5 -160.5t141.5 -384t-138.5 -390t-371.5 -166.5q-260 0 -401.5 160.5t-141.5 384zM252 1290q16 27 85 101.5t107 91.5q22 11 50 11q70 0 176 -71q8 -4 32.5 -20.5t37 -23.5t30.5 -13t33 -4q18 2 78 61l57 56l63 -68 q-16 -27 -84.5 -101.5t-107.5 -90.5q-22 -11 -50 -11q-70 0 -175 70q-8 4 -33 20.5t-37 23.5t-30.5 13t-32.5 4q-29 -12 -78 -61l-58 -55zM287 551q0 -193 80 -324t256 -131q154 0 230.5 123t76.5 299q0 193 -80 324t-256 131q-154 0 -230.5 -123t-76.5 -299z" />
<glyph unicode="&#xf6;" horiz-adv-x="1216" d="M82 528.5q0 223.5 138.5 390t371.5 166.5q260 0 401.5 -160.5t141.5 -384t-138.5 -390t-371.5 -166.5q-260 0 -401.5 160.5t-141.5 384zM258 1348q47 86 133 131q82 -45 127 -127q-51 -86 -133 -131q-84 43 -127 127zM287 551q0 -193 80 -324t256 -131q154 0 230.5 123 t76.5 299q0 193 -80 324t-256 131q-154 0 -230.5 -123t-76.5 -299zM690 1348q47 86 133 131q82 -45 127 -127q-51 -86 -133 -131q-84 43 -127 127z" />
<glyph unicode="&#xf7;" horiz-adv-x="1810" d="M287 539v157h1237v-157h-1237zM743 1018q53 98 152 149q94 -51 145 -145q-57 -98 -151 -150q-97 50 -146 146zM743 213q53 98 152 149q94 -51 145 -145q-57 -98 -151 -149q-97 49 -146 145z" />
<glyph unicode="&#xf8;" horiz-adv-x="1216" d="M82 528q0 223 138.5 390t371.5 167q121 0 227 -43l74 136l90 -41l-76 -142q113 -76 170.5 -195.5t57.5 -258.5q0 -223 -138.5 -390t-371.5 -167q-133 0 -238 45l-102 -193l-88 49l102 193q-217 154 -217 450zM287 551q0 -217 86 -336l387 715q-76 43 -166 43 q-154 0 -230.5 -123t-76.5 -299zM449 141q70 -45 174 -45q154 0 230.5 123t76.5 299q0 227 -94 344z" />
<glyph unicode="&#xf9;" horiz-adv-x="1304" d="M61 975l21 92h328v-666q0 -147 46 -198t150 -51q84 0 165 28.5t120 75.5v684l-156 29l21 98h317v-940l166 -37l-22 -90h-326v156q-66 -80 -165 -126t-189 -46h-2q-308 0 -308 376l-2 580zM233 1536h201l219 -344h-112z" />
<glyph unicode="&#xfa;" horiz-adv-x="1304" d="M61 975l21 92h328v-666q0 -147 46 -198t150 -51q84 0 165 28.5t120 75.5v684l-156 29l21 98h317v-940l166 -37l-22 -90h-326v156q-66 -80 -165 -126t-189 -46h-2q-308 0 -308 376l-2 580zM559 1157l178 375h201l-266 -375h-113z" />
<glyph unicode="&#xfb;" horiz-adv-x="1304" d="M61 975l21 92h328v-666q0 -147 46 -198t150 -51q84 0 165 28.5t120 75.5v684l-156 29l21 98h317v-940l166 -37l-22 -90h-326v156q-66 -80 -165 -126t-189 -46h-2q-308 0 -308 376l-2 580zM332 1167l237 367v2h146l-2 -2l239 -367h-112l-199 269l-197 -269h-112z" />
<glyph unicode="&#xfc;" horiz-adv-x="1304" d="M61 975l21 92h328v-666q0 -147 46 -198t150 -51q84 0 165 28.5t120 75.5v684l-156 29l21 98h317v-940l166 -37l-22 -90h-326v156q-66 -80 -165 -126t-189 -46h-2q-308 0 -308 376l-2 580zM299 1348q47 86 133 131q82 -45 127 -127q-51 -86 -133 -131q-84 43 -127 127z M731 1348q47 86 133 131q82 -45 127 -127q-51 -86 -133 -131q-84 43 -127 127z" />
<glyph unicode="&#xfd;" horiz-adv-x="1093" d="M-10 973l20 92h439v-61l-123 -52l254 -628l12 -58l282 680l-124 21l20 98h365v-61l-134 -60l-180 -428l-145 -340q-137 -346 -191 -440q-113 -207 -319 -207q-63 0 -131 20l57 170q59 -14 121 -14q31 0 55.5 4t45.5 17l33 22q13 8 29 34l24 36q6 10 26 47l25 49 q41 100 49 121l-369 903zM510 1157l178 375h201l-266 -375h-113z" />
<glyph unicode="&#xfe;" horiz-adv-x="1257" d="M51 -399l178 61v1653l-166 33l-10 90l361 49v-541q152 137 323 137q176 0 297 -145t121 -373q0 -244 -135 -406.5t-354 -162.5q-117 0 -252 53v-383l196 -28l-20 -99h-539v62zM414 203q139 -94 250 -94q133 0 210.5 120.5t77.5 300.5q0 184 -72.5 291t-201.5 107 q-127 -1 -264 -101v-624z" />
<glyph unicode="&#xff;" horiz-adv-x="1103" d="M0 973l20 92h439v-61l-123 -52l254 -628l12 -58l283 680l-125 21l20 98h365v-61l-133 -60l-181 -428l-145 -340q-129 -326 -190 -440q-121 -204 -325 -204q-59 0 -126 17l57 170q55 -10 96 -14q12 -1 24 -1q28 0 52 7l52 15q18 6 41.5 35.5t29.5 39t32 55.5t32 58 q41 100 49 121l-369 903zM279 1348q47 86 133 131q82 -45 127 -127q-51 -86 -133 -131q-84 43 -127 127zM711 1348q47 86 133 131q82 -45 127 -127q-51 -86 -133 -131q-84 43 -127 127z" />
<glyph unicode="&#x152;" horiz-adv-x="2004" d="M92 719q0 317 188.5 530t503.5 213q106 0 211 -28h875v-336l-103 -21l-65 244h-500v-512h346l56 137l71 -20v-363l-57 -20l-70 145h-346v-575h539l65 237l107 -22v-328h-918q-102 -29 -209 -29q-219 0 -379.5 106.5t-237.5 273.5t-77 368zM307 754q0 -178 50.5 -324.5 t167 -246t284.5 -99.5q76 0 186 53v1151q-104 61 -233 62q-199 0 -327 -176.5t-128 -419.5z" />
<glyph unicode="&#x153;" horiz-adv-x="1927" d="M82 528.5q0 223.5 138.5 390t371.5 166.5q276 0 420 -223q70 106 173 162.5t212 56.5q438 0 438 -532h-727q0 -199 102.5 -316.5t262.5 -117.5q145 0 301 100l45 -78q-198 -155 -413 -155h-3q-121 0 -224.5 57t-168.5 166q-137 -221 -385 -221q-260 0 -401.5 160.5 t-141.5 384zM287 551q0 -193 80 -324t256 -131q154 0 230.5 123t76.5 299q0 193 -80 324t-256 131q-154 0 -230.5 -123t-76.5 -299zM1114 659h516q0 152 -69.5 232t-169.5 80q-104 0 -188.5 -85.5t-88.5 -226.5z" />
<glyph unicode="&#x178;" horiz-adv-x="1290" d="M-31 1341l21 93h502v-72l-144 -41l357 -557l339 553l-151 24l20 93h428v-72l-165 -57l-402 -652v-522l195 -39l-21 -92h-573v72l194 59v479l-440 693zM319 1711q47 86 133 131q82 -45 127 -127q-51 -86 -133 -131q-84 43 -127 127zM751 1711q47 86 133 131 q82 -45 127 -127q-51 -86 -133 -131q-84 43 -127 127z" />
<glyph unicode="&#x2c6;" horiz-adv-x="1071" d="M225 1167l238 367v2h145l-2 -2l240 -367h-113l-198 269l-197 -269h-113z" />
<glyph unicode="&#x2dc;" horiz-adv-x="1705" d="M451 1290q16 27 84.5 101.5t107.5 91.5q22 11 50 11q70 0 175 -71q8 -4 33 -20.5t37 -23.5t30.5 -13t32.5 -4q18 2 78 61l58 56l63 -68q-16 -27 -84.5 -101.5t-107.5 -90.5q-22 -11 -50 -11q-71 0 -176 70q-8 4 -32.5 20.5t-37 23.5t-30.5 13t-33 4q-29 -12 -78 -61 l-57 -55z" />
<glyph unicode="&#x2000;" horiz-adv-x="994" />
<glyph unicode="&#x2001;" horiz-adv-x="1989" />
<glyph unicode="&#x2002;" horiz-adv-x="994" />
<glyph unicode="&#x2003;" horiz-adv-x="1989" />
<glyph unicode="&#x2004;" horiz-adv-x="663" />
<glyph unicode="&#x2005;" horiz-adv-x="497" />
<glyph unicode="&#x2006;" horiz-adv-x="331" />
<glyph unicode="&#x2007;" horiz-adv-x="331" />
<glyph unicode="&#x2008;" horiz-adv-x="248" />
<glyph unicode="&#x2009;" horiz-adv-x="397" />
<glyph unicode="&#x200a;" horiz-adv-x="110" />
<glyph unicode="&#x2010;" horiz-adv-x="704" d="M102 399v154h500v-154h-500z" />
<glyph unicode="&#x2011;" horiz-adv-x="704" d="M102 399v154h500v-154h-500z" />
<glyph unicode="&#x2012;" horiz-adv-x="704" d="M102 399v154h500v-154h-500z" />
<glyph unicode="&#x2013;" horiz-adv-x="1173" d="M-2 393v156h1176v-156h-1176z" />
<glyph unicode="&#x2014;" horiz-adv-x="2138" d="M0 393v156h2138v-156h-2138z" />
<glyph unicode="&#x2018;" horiz-adv-x="475" d="M74 1087q-27 109 40.5 269t170.5 194l41 -51q-66 -45 -90.5 -122t-10.5 -140q96 -49 146 -145q-53 -98 -152 -150q-94 51 -145 145z" />
<glyph unicode="&#x2019;" horiz-adv-x="475" d="M100 1364q53 98 152 149q94 -51 145 -145q7 -28 7 -61q0 -48 -14 -107q-23 -100 -79.5 -186t-124.5 -109l-41 51q68 45 91 121q15 48 15 91q0 26 -5 51q-96 49 -146 145z" />
<glyph unicode="&#x201a;" horiz-adv-x="567" d="M109 100q53 98 151 150q95 -52 146 -146q6 -28 6 -60q0 -49 -13 -108q-24 -100 -80.5 -186t-123.5 -108l-41 51q68 45 91 121q14 46 14 90q0 26 -5 51q-96 49 -145 145z" />
<glyph unicode="&#x201c;" horiz-adv-x="905" d="M72 1085q-8 31 -8 66q0 89 48 203q68 159 171 194l41 -51q-66 -45 -90 -122q-16 -49 -16 -92q0 -25 5 -48q96 -49 146 -145q-53 -98 -152 -150q-94 51 -145 145zM514 1085q-8 31 -8 66q0 88 49 203q68 159 170 194l41 -51q-66 -45 -90 -122q-16 -48 -16 -90q0 -26 6 -50 q96 -49 145 -145q-53 -98 -152 -150q-94 51 -145 145z" />
<glyph unicode="&#x201d;" horiz-adv-x="905" d="M96 1350q53 98 152 149q94 -51 145 -145q6 -28 6 -60q0 -49 -14 -109q-23 -100 -79 -186t-124 -108l-41 51q68 45 91 121q15 48 15 91q0 26 -5 50q-96 49 -146 146zM526 1350q53 98 152 149q94 -51 145 -145q7 -28 7 -61q0 -48 -14 -108q-23 -100 -79.5 -186t-124.5 -108 l-41 51q68 45 91 121q15 48 15 91q0 26 -5 50q-96 49 -146 146z" />
<glyph unicode="&#x201e;" horiz-adv-x="905" d="M104 166q53 98 152 149q94 -51 145 -145q7 -28 7 -61q0 -48 -14 -107q-23 -100 -79.5 -186t-124.5 -109l-40 51q68 45 91 121q14 47 14 90q0 26 -5 51q-96 49 -146 146zM532 166q53 98 152 149q94 -51 145 -145q7 -28 7 -61q0 -48 -14 -107q-23 -100 -79.5 -186 t-124.5 -109l-40 51q68 45 91 121q14 47 14 90q0 26 -5 51q-96 49 -146 146z" />
<glyph unicode="&#x2022;" horiz-adv-x="1353" d="M348 807q0 137 96.5 233.5t233.5 96.5q135 0 231.5 -96.5t96.5 -233.5q0 -135 -96.5 -231.5t-231.5 -96.5q-137 0 -233.5 96.5t-96.5 231.5z" />
<glyph unicode="&#x2026;" horiz-adv-x="1749" d="M143 113q53 98 152 149q94 -51 145 -145q-57 -98 -151 -150q-97 50 -146 146zM726 113q53 98 152 149q94 -51 145 -145q-57 -98 -151 -150q-97 50 -146 146zM1309 113q53 98 152 149q94 -51 145 -145q-57 -98 -151 -150q-97 50 -146 146z" />
<glyph unicode="&#x202f;" horiz-adv-x="397" />
<glyph unicode="&#x2039;" horiz-adv-x="643" d="M82 524v21q84 80 202.5 222t198.5 263l58 -24q-14 -63 -99.5 -216t-162.5 -231l-3 -2v-4v-4q0 -2 3 -2q76 -76 160.5 -245t101.5 -239l-58 -24q-80 121 -198.5 263t-202.5 222z" />
<glyph unicode="&#x203a;" horiz-adv-x="612" d="M72 63q16 70 101 239t161 245v2q0 2 2 4l-1 2l-1 2v2q-78 78 -163 230.5t-99 216.5l57 24q72 -115 192.5 -258t208.5 -227v-21q-88 -84 -208.5 -227t-192.5 -258z" />
<glyph unicode="&#x205f;" horiz-adv-x="497" />
<glyph unicode="&#x20ac;" horiz-adv-x="1169" d="M-133 496l61 112h211q-4 23 -4 105q0 47 2 69h-188l61 113h137q41 289 205 431t414 142q225 0 416 -125l-156 -325l-102 35l26 264q-98 45 -198 45q-164 0 -257.5 -108.5t-117.5 -358.5h516l-62 -113h-460v-69q0 -72 2 -105h424l-62 -112h-350q63 -401 387 -402 q142 0 330 80l26 -92q-229 -109 -419 -109q-221 0 -365.5 136.5t-189.5 386.5h-287z" />
<glyph unicode="&#x2122;" horiz-adv-x="3219" d="M41 1047v387h1202v-387l-102 -21l-68 295h-325v-1190l194 -39l-20 -92h-574v72l195 59v1190h-332l-68 -295zM1345 0v72l195 59v1172l-193 38l21 93h362l517 -1024l503 1024h398v-72l-195 -59v-1172l195 -39l-21 -92h-571v72l192 57v1032l-506 -1030h-71l-508 1004v-1004 l194 -39l-20 -92h-492z" />
<glyph unicode="&#xe000;" horiz-adv-x="1065" d="M0 1065h1065v-1065h-1065v1065z" />
<glyph unicode="&#xfb01;" horiz-adv-x="1388" d="M72 0v61l178 62v792h-178v113h178l2 152q0 188 105.5 279t255 91t268.5 -69v-273l-103 -20l-57 225q-49 25 -109 25q-94 0 -136 -57.5t-42 -202.5v-150h273v-113h-273v-788l228 -29l-21 -98h-569zM819 0v61l180 62v792l-166 31l-10 84l360 49v-952l154 -29l-21 -98h-497z M931 1378q53 90 144 142q90 -47 137 -138q-51 -88 -143 -141q-91 47 -138 137z" />
<glyph unicode="&#xfb02;" horiz-adv-x="1398" d="M72 0v61l178 62v792h-178v113h178l2 152q0 188 105.5 279t255 91t268.5 -69v-273l-103 -20l-57 225q-49 25 -109 25q-94 0 -136 -57.5t-42 -202.5v-150h273v-113h-273v-788l228 -29l-21 -98h-569zM808 0v61l181 62v1249l-166 31l-10 84l360 49v-1409l174 -29l-20 -98 h-519z" />
<glyph unicode="&#xfb03;" horiz-adv-x="2135" d="M72 0v61l178 62v792h-178v113h178l2 152q0 188 105.5 279t255 91t268.5 -69v-273l-103 -20l-57 225q-49 25 -109 25q-94 0 -136 -57.5t-42 -202.5v-150h273v-113h-273v-788l228 -29l-21 -98h-569zM819 0v61l178 62v792h-178v113h178l2 152q0 188 105.5 279t255 91 t268.5 -69v-273l-103 -20l-57 225q-49 25 -109 25q-94 0 -136 -57.5t-42 -202.5v-150h273v-113h-273v-788l228 -29l-21 -98h-569zM1566 0v61l180 62v792l-166 31l-10 84l360 49v-952l154 -29l-21 -98h-497zM1678 1378q53 90 144 142q90 -47 137 -138q-51 -88 -143 -141 q-91 47 -138 137z" />
<glyph unicode="&#xfb04;" horiz-adv-x="2145" d="M72 0v61l178 62v792h-178v113h178l2 152q0 188 105.5 279t255 91t268.5 -69v-273l-103 -20l-57 225q-49 25 -109 25q-94 0 -136 -57.5t-42 -202.5v-150h273v-113h-273v-788l228 -29l-21 -98h-569zM819 0v61l178 62v792h-178v113h178l2 152q0 188 105.5 279t255 91 t268.5 -69v-273l-103 -20l-57 225q-49 25 -109 25q-94 0 -136 -57.5t-42 -202.5v-150h273v-113h-273v-788l228 -29l-21 -98h-569zM1555 0v61l181 62v1249l-166 31l-10 84l360 49v-1409l174 -29l-20 -98h-519z" />
<glyph horiz-adv-x="0" />
</font>
</defs>
</svg>
