<?xml version="1.0" encoding="UTF-8" standalone="no"?>
<!-- Created with Inkscape (http://www.inkscape.org/) -->

<svg
   xmlns:dc="http://purl.org/dc/elements/1.1/"
   xmlns:cc="http://creativecommons.org/ns#"
   xmlns:rdf="http://www.w3.org/1999/02/22-rdf-syntax-ns#"
   xmlns:svg="http://www.w3.org/2000/svg"
   xmlns="http://www.w3.org/2000/svg"
   xmlns:xlink="http://www.w3.org/1999/xlink"
   xmlns:sodipodi="http://sodipodi.sourceforge.net/DTD/sodipodi-0.dtd"
   xmlns:inkscape="http://www.inkscape.org/namespaces/inkscape"
   id="svg2"
   sodipodi:version="0.32"
   inkscape:version="0.48.2 r9819"
   width="1052.3625"
   height="1488.1875"
   xml:space="preserve"
   sodipodi:docname="cucumber_logo_pure.svg"
   inkscape:output_extension="org.inkscape.output.svg.inkscape"
   version="1.1"><metadata
     id="metadata7"><rdf:RDF><cc:Work
         rdf:about=""><dc:format>image/svg+xml</dc:format><dc:type
           rdf:resource="http://purl.org/dc/dcmitype/StillImage" /><dc:title></dc:title></cc:Work></rdf:RDF></metadata><defs
     id="defs5"><inkscape:perspective
   sodipodi:type="inkscape:persp3d"
   inkscape:vp_x="0 : 526.18109 : 1"
   inkscape:vp_y="0 : 1000 : 0"
   inkscape:vp_z="744.09448 : 526.18109 : 1"
   inkscape:persp3d-origin="372.04724 : 350.78739 : 1"
   id="perspective9" /><clipPath
   clipPathUnits="userSpaceOnUse"
   id="clipPath17"><path
     d="M 0,1190.551 L 841.89,1190.551 L 841.89,0 L 0,0 L 0,1190.551 z"
     id="path19" /></clipPath><linearGradient
   x1="0"
   y1="0"
   x2="1"
   y2="0"
   gradientUnits="userSpaceOnUse"
   gradientTransform="matrix(0,7.0703125,7.0703125,0,390.27979,490.68555)"
   spreadMethod="pad"
   id="linearGradient65"><stop
     style="stop-opacity:1;stop-color:#cee18a"
     offset="0"
     id="stop67" /><stop
     style="stop-opacity:1;stop-color:#fff8cc"
     offset="1"
     id="stop69" /></linearGradient><linearGradient
   x1="0"
   y1="0"
   x2="1"
   y2="0"
   gradientUnits="userSpaceOnUse"
   gradientTransform="matrix(0,-18.005859,-18.005859,0,390.2793,467.13477)"
   spreadMethod="pad"
   id="linearGradient85"><stop
     style="stop-opacity:1;stop-color:#cee18a"
     offset="0"
     id="stop87" /><stop
     style="stop-opacity:1;stop-color:#b6c378"
     offset="1"
     id="stop89" /></linearGradient><clipPath
   clipPathUnits="userSpaceOnUse"
   id="clipPath97"><path
     d="M 0,1190.551 L 841.89,1190.551 L 841.89,0 L 0,0 L 0,1190.551 z"
     id="path99" /></clipPath><linearGradient
   x1="0"
   y1="0"
   x2="1"
   y2="0"
   gradientUnits="userSpaceOnUse"
   gradientTransform="matrix(0,7.0712891,7.0712891,0,366.45361,654.79492)"
   spreadMethod="pad"
   id="linearGradient157"><stop
     style="stop-opacity:1;stop-color:#cee18a"
     offset="0"
     id="stop159" /><stop
     style="stop-opacity:1;stop-color:#fff8cc"
     offset="1"
     id="stop161" /></linearGradient><linearGradient
   x1="0"
   y1="0"
   x2="1"
   y2="0"
   gradientUnits="userSpaceOnUse"
   gradientTransform="matrix(0,-18.005371,-18.005371,0,366.45312,631.24316)"
   spreadMethod="pad"
   id="linearGradient177"><stop
     style="stop-opacity:1;stop-color:#cee18a"
     offset="0"
     id="stop179" /><stop
     style="stop-opacity:1;stop-color:#b6c378"
     offset="1"
     id="stop181" /></linearGradient><clipPath
   clipPathUnits="userSpaceOnUse"
   id="clipPath189"><path
     d="M 0,1190.551 L 841.89,1190.551 L 841.89,0 L 0,0 L 0,1190.551 z"
     id="path191" /></clipPath><linearGradient
   x1="0"
   y1="0"
   x2="1"
   y2="0"
   gradientUnits="userSpaceOnUse"
   gradientTransform="matrix(0,6.6137695,6.6137695,0,406.97217,796.16699)"
   spreadMethod="pad"
   id="linearGradient249"><stop
     style="stop-opacity:1;stop-color:#cee18a"
     offset="0"
     id="stop251" /><stop
     style="stop-opacity:1;stop-color:#fff8cc"
     offset="1"
     id="stop253" /></linearGradient><linearGradient
   x1="0"
   y1="0"
   x2="1"
   y2="0"
   gradientUnits="userSpaceOnUse"
   gradientTransform="matrix(0,-16.841797,-16.841797,0,406.97168,774.14062)"
   spreadMethod="pad"
   id="linearGradient269"><stop
     style="stop-opacity:1;stop-color:#cee18a"
     offset="0"
     id="stop271" /><stop
     style="stop-opacity:1;stop-color:#b6c378"
     offset="1"
     id="stop273" /></linearGradient><clipPath
   clipPathUnits="userSpaceOnUse"
   id="clipPath281"><path
     d="M 0,1190.551 L 841.89,1190.551 L 841.89,0 L 0,0 L 0,1190.551 z"
     id="path283" /></clipPath><linearGradient
   x1="0"
   y1="0"
   x2="1"
   y2="0"
   gradientUnits="userSpaceOnUse"
   gradientTransform="matrix(0,6.6137695,6.6137695,0,382.95508,966.25244)"
   spreadMethod="pad"
   id="linearGradient345"><stop
     style="stop-opacity:1;stop-color:#cee18a"
     offset="0"
     id="stop347" /><stop
     style="stop-opacity:1;stop-color:#fff8cc"
     offset="1"
     id="stop349" /></linearGradient><linearGradient
   x1="0"
   y1="0"
   x2="1"
   y2="0"
   gradientUnits="userSpaceOnUse"
   gradientTransform="matrix(0,-16.84082,-16.84082,0,382.95508,944.22559)"
   spreadMethod="pad"
   id="linearGradient365"><stop
     style="stop-opacity:1;stop-color:#cee18a"
     offset="0"
     id="stop367" /><stop
     style="stop-opacity:1;stop-color:#b6c378"
     offset="1"
     id="stop369" /></linearGradient><clipPath
   clipPathUnits="userSpaceOnUse"
   id="clipPath377"><path
     d="M 0,1190.551 L 841.89,1190.551 L 841.89,0 L 0,0 L 0,1190.551 z"
     id="path379" /></clipPath><linearGradient
   x1="0"
   y1="0"
   x2="1"
   y2="0"
   gradientUnits="userSpaceOnUse"
   gradientTransform="matrix(0,5.5292969,5.5292969,0,317.48291,1100.5757)"
   spreadMethod="pad"
   id="linearGradient441"><stop
     style="stop-opacity:1;stop-color:#cee18a"
     offset="0"
     id="stop443" /><stop
     style="stop-opacity:1;stop-color:#fff8cc"
     offset="1"
     id="stop445" /></linearGradient><linearGradient
   x1="0"
   y1="0"
   x2="1"
   y2="0"
   gradientUnits="userSpaceOnUse"
   gradientTransform="matrix(0,-14.078125,-14.078125,0,317.48242,1082.1602)"
   spreadMethod="pad"
   id="linearGradient461"><stop
     style="stop-opacity:1;stop-color:#cee18a"
     offset="0"
     id="stop463" /><stop
     style="stop-opacity:1;stop-color:#b6c378"
     offset="1"
     id="stop465" /></linearGradient><clipPath
   clipPathUnits="userSpaceOnUse"
   id="clipPath473"><path
     d="M 0,1190.551 L 841.89,1190.551 L 841.89,0 L 0,0 L 0,1190.551 z"
     id="path475" /></clipPath><linearGradient
   x1="0"
   y1="0"
   x2="1"
   y2="0"
   gradientUnits="userSpaceOnUse"
   gradientTransform="matrix(0,7.0712891,7.0712891,0,390.27979,315.85937)"
   spreadMethod="pad"
   id="linearGradient533"><stop
     style="stop-opacity:1;stop-color:#cee18a"
     offset="0"
     id="stop535" /><stop
     style="stop-opacity:1;stop-color:#fff8cc"
     offset="1"
     id="stop537" /></linearGradient><linearGradient
   x1="0"
   y1="0"
   x2="1"
   y2="0"
   gradientUnits="userSpaceOnUse"
   gradientTransform="matrix(0,-18.004883,-18.004883,0,390.2793,292.30859)"
   spreadMethod="pad"
   id="linearGradient553"><stop
     style="stop-opacity:1;stop-color:#cee18a"
     offset="0"
     id="stop555" /><stop
     style="stop-opacity:1;stop-color:#b6c378"
     offset="1"
     id="stop557" /></linearGradient><clipPath
   clipPathUnits="userSpaceOnUse"
   id="clipPath565"><path
     d="M 0,1190.551 L 841.89,1190.551 L 841.89,0 L 0,0 L 0,1190.551 z"
     id="path567" /></clipPath><linearGradient
   x1="0"
   y1="0"
   x2="1"
   y2="0"
   gradientUnits="userSpaceOnUse"
   gradientTransform="matrix(0,6.6132812,6.6132812,0,296.52686,138.16699)"
   spreadMethod="pad"
   id="linearGradient625"><stop
     style="stop-opacity:1;stop-color:#cee18a"
     offset="0"
     id="stop627" /><stop
     style="stop-opacity:1;stop-color:#fff8cc"
     offset="1"
     id="stop629" /></linearGradient><linearGradient
   x1="0"
   y1="0"
   x2="1"
   y2="0"
   gradientUnits="userSpaceOnUse"
   gradientTransform="matrix(0,-16.839844,-16.839844,0,296.52637,116.13867)"
   spreadMethod="pad"
   id="linearGradient645"><stop
     style="stop-opacity:1;stop-color:#cee18a"
     offset="0"
     id="stop647" /><stop
     style="stop-opacity:1;stop-color:#b6c378"
     offset="1"
     id="stop649" /></linearGradient><clipPath
   clipPathUnits="userSpaceOnUse"
   id="clipPath657"><path
     d="M 0,1190.551 L 841.89,1190.551 L 841.89,0 L 0,0 L 0,1190.551 z"
     id="path659" /></clipPath>
<linearGradient
   inkscape:collect="always"
   xlink:href="#linearGradient249"
   id="linearGradient3130"
   gradientUnits="userSpaceOnUse"
   gradientTransform="matrix(0,6.6137695,6.6137695,0,406.97217,796.16699)"
   spreadMethod="pad"
   x1="0"
   y1="0"
   x2="1"
   y2="0" /><linearGradient
   inkscape:collect="always"
   xlink:href="#linearGradient269"
   id="linearGradient3132"
   gradientUnits="userSpaceOnUse"
   gradientTransform="matrix(0,-16.841797,-16.841797,0,406.97168,774.14062)"
   spreadMethod="pad"
   x1="0"
   y1="0"
   x2="1"
   y2="0" /></defs><sodipodi:namedview
     inkscape:window-height="847"
     inkscape:window-width="1335"
     inkscape:pageshadow="2"
     inkscape:pageopacity="0.0"
     guidetolerance="10.0"
     gridtolerance="10.0"
     objecttolerance="10.0"
     borderopacity="1.0"
     bordercolor="#666666"
     pagecolor="#ffffff"
     id="base"
     showgrid="false"
     inkscape:zoom="0.9388891"
     inkscape:cx="629.28874"
     inkscape:cy="1012.5307"
     inkscape:window-x="88"
     inkscape:window-y="22"
     inkscape:current-layer="g11"
     inkscape:window-maximized="0" /><g
     id="g11"
     inkscape:groupmode="layer"
     inkscape:label="cucumber_logo"
     transform="matrix(1.25,0,0,-1.25,0,1488.1875)"
     style="display:inline"><text
   transform="scale(1,-1)"
   id="text21"
   x="140.01141"
   y="-384.80347"
   inkscape:export-filename="/Users/aslakhellesoy/scm/cucumber_site/images/cuke_logo.png"
   inkscape:export-xdpi="83.060699"
   inkscape:export-ydpi="83.060699"><tspan
     style="font-size:83.10620117px;font-variant:normal;font-weight:500;font-stretch:normal;writing-mode:lr-tb;fill:#204c23;fill-opacity:1;fill-rule:nonzero;stroke:none;font-family:Amasis MT;-inkscape-font-specification:AmasisMT-Medium"
     sodipodi:role="line"
     id="tspan23"
     x="140.01141"
     y="-384.80347" /></text>



<text
   transform="scale(1,-1)"
   id="text25"
   x="128.46941"
   y="-548.35718"
   inkscape:export-filename="/Users/aslakhellesoy/scm/cucumber_site/images/cuke_logo.png"
   inkscape:export-xdpi="83.060699"
   inkscape:export-ydpi="83.060699"><tspan
     style="font-size:90.76989746px;font-variant:normal;font-weight:500;font-stretch:normal;writing-mode:lr-tb;fill:#204c23;fill-opacity:1;fill-rule:nonzero;stroke:none;font-family:Aachen Medium Plain;-inkscape-font-specification:AachenMediumPlain"
     sodipodi:role="line"
     id="tspan27"
     x="128.46941"
     y="-548.35718" /></text>



<text
   transform="scale(1,-1)"
   id="text29"
   sodipodi:linespacing="125%"
   style="line-height:125%"
   x="125.22531"
   y="-705.60126"
   inkscape:export-filename="/Users/aslakhellesoy/scm/cucumber_site/images/cuke_logo.png"
   inkscape:export-xdpi="83.060699"
   inkscape:export-ydpi="83.060699"><tspan
     style="font-size:72px;font-style:normal;font-variant:normal;font-weight:bold;font-stretch:normal;text-align:start;line-height:125%;writing-mode:lr-tb;text-anchor:start;fill:#204c23;fill-opacity:1;fill-rule:nonzero;stroke:none;font-family:Kozuka Mincho Pro B;-inkscape-font-specification:Kozuka Mincho Pro B Bold"
     x="125.22531"
     y="-705.60126"
     sodipodi:role="line"
     id="tspan31" /></text>



<text
   transform="scale(1,-1)"
   id="text33"
   x="138.48701"
   y="-208.71259"
   inkscape:export-filename="/Users/aslakhellesoy/scm/cucumber_site/images/cuke_logo.png"
   inkscape:export-xdpi="83.060699"
   inkscape:export-ydpi="83.060699"><tspan
     style="font-size:79.5809021px;font-variant:normal;font-weight:bold;font-stretch:normal;writing-mode:lr-tb;fill:#204c23;fill-opacity:1;fill-rule:nonzero;stroke:none;font-family:Alte Haas Grotesk;-inkscape-font-specification:AlteHaasGrotesk_Bold"
     sodipodi:role="line"
     id="tspan35"
     x="138.48701"
     y="-208.71259" /></text>



<text
   transform="scale(1,-1)"
   id="text37"
   x="148.03671"
   y="-34.90789"
   inkscape:export-filename="/Users/aslakhellesoy/scm/cucumber_site/images/cuke_logo.png"
   inkscape:export-xdpi="83.060699"
   inkscape:export-ydpi="83.060699"><tspan
     style="font-size:79.5809021px;font-variant:normal;font-weight:500;font-stretch:normal;writing-mode:lr-tb;fill:#204c23;fill-opacity:1;fill-rule:nonzero;stroke:none;font-family:Haettenschweiler;-inkscape-font-specification:Haettenschweiler"
     x="148.03671"
     y="-34.90789"
     sodipodi:role="line"
     id="tspan39" /></text>



<g
   id="g3317"
   inkscape:export-filename="/Users/ahellesoy/github/cucumber.github.com/images/cucumber.github.com/cucumber-48x48.png"
   inkscape:export-xdpi="58.236992"
   inkscape:export-ydpi="58.236992"
   transform="matrix(4.2485771,0,0,4.2485771,-1303.2207,-2466.418)"><g
     transform="translate(435.4258,774.5776)"
     id="g225"><path
       inkscape:connector-curvature="0"
       id="path227"
       style="fill:#cee18a;fill-opacity:1;fill-rule:nonzero;stroke:none"
       d="m 0,0 c 0,-5.683 -4.607,-10.291 -10.291,-10.291 l -17.674,0 -17.493,-12.348 c -3.088,-1.929 -4.501,-0.514 -3.627,1.158 l 5.043,11.19 -2.573,0 c -5.684,0 -10.291,4.608 -10.291,10.291 l 0,21.224 c 0,5.683 4.607,10.29 10.291,10.29 l 36.324,0 C -4.607,31.514 0,26.907 0,21.224 L 0,0 z" /></g><g
     transform="translate(435.4258,774.5776)"
     id="g229"><path
       inkscape:connector-curvature="0"
       id="path231"
       style="fill:none;stroke:#225c2b;stroke-width:2.44300008;stroke-linecap:butt;stroke-linejoin:miter;stroke-miterlimit:4;stroke-opacity:1;stroke-dasharray:none"
       d="m 0,0 c 0,-5.683 -4.607,-10.291 -10.291,-10.291 l -17.674,0 -17.493,-12.348 c -3.088,-1.929 -4.501,-0.514 -3.627,1.158 l 5.043,11.19 -2.573,0 c -5.684,0 -10.291,4.608 -10.291,10.291 l 0,21.224 c 0,5.683 4.607,10.29 10.291,10.29 l 36.324,0 C -4.607,31.514 0,26.907 0,21.224 L 0,0 z" /></g><g
     transform="translate(381.7979,795.8022)"
     id="g233"><path
       inkscape:connector-curvature="0"
       id="path235"
       style="fill:#71b72d;fill-opacity:1;fill-rule:nonzero;stroke:none"
       d="m 0,0 0,-21.226 c 0.008,-3.86 3.15,-7.002 7.012,-7.009 l 2.574,0 5.072,0 -2.083,-4.627 -2.563,-5.686 13.759,9.712 0.849,0.601 0.39,0 0.652,0 17.675,0 c 3.862,0.007 7.004,3.149 7.011,7.009 l 0,21.226 c -0.007,3.862 -3.149,7.004 -7.011,7.011 l -36.325,0 C 3.15,7.004 0.008,3.862 0,0 m 10.347,-31.859 0.531,1.181 -1.292,0 -2.574,0 c -5.216,0.002 -9.452,4.237 -9.453,9.452 l 0,21.226 c 10e-4,5.216 4.237,9.451 9.453,9.453 l 36.325,0 C 48.554,9.451 52.789,5.216 52.791,0 l 0,-21.226 c -0.002,-5.215 -4.237,-9.45 -9.454,-9.452 l -17.675,0 -0.265,0 -0.218,-0.154 -17.653,-12.034 -2.38,-1.48 5.201,12.487 z" /></g><g
     id="g3237"><g
       id="g3203"><g
         id="g3174"><g
           id="g3142"><g
             id="g237"><g
               id="g239"><g
                 id="g245"><g
                   id="g247"><path
                     inkscape:connector-curvature="0"
                     id="path255"
                     style="fill:url(#linearGradient3130);stroke:none"
                     d="m 388.498,802.781 c -3.646,-0.01 -6.604,-2.967 -6.615,-6.609 l 0,0 2.096,0 c 0.001,2.478 2.036,4.514 4.519,4.515 l 0,0 36.951,0 c 2.478,-10e-4 4.512,-2.036 4.516,-4.519 l 0,0 2.095,-10e-4 c -0.01,3.645 -2.968,6.604 -6.608,6.614 l 0,0 -36.954,0 z" /></g></g></g></g><g
             id="g257"><g
               id="g259"><g
                 id="g265"><g
                   id="g267"><path
                     inkscape:connector-curvature="0"
                     id="path275"
                     style="fill:url(#linearGradient3132);stroke:none"
                     d="m 381.883,774.139 c 0.012,-3.644 2.97,-6.603 6.611,-6.613 l 0,0 7.924,0 -4.564,-10.227 14.515,10.227 19.079,0 c 3.646,0.01 6.602,2.967 6.612,6.607 l 0,0 -2.093,0 c -0.002,-2.477 -2.038,-4.513 -4.52,-4.514 l 0,0 c 0,10e-4 -19.981,10e-4 -19.981,10e-4 l 0,0 -8.199,-5.461 2.219,5.461 c 0,0 -10.991,0 -10.991,-10e-4 l 0,0 c -2.477,10e-4 -4.513,2.037 -4.516,4.52 l 0,0 -2.096,0 z" /></g></g></g></g><g
             transform="translate(405.6987,787.0479)"
             id="g285"><path
               inkscape:connector-curvature="0"
               id="path287"
               style="fill:#ffffff;fill-opacity:1;fill-rule:nonzero;stroke:none"
               d="M 0,0 C -1.952,3.414 2.571,9.207 -3.169,10.796 -6.021,11.586 -7.688,8.229 -6.046,6.015 -4.61,4.077 -1.044,2.588 -0.18,0.439" /></g><g
             transform="translate(402.1519,785.8706)"
             id="g289"><path
               inkscape:connector-curvature="0"
               id="path291"
               style="fill:#ffffff;fill-opacity:1;fill-rule:nonzero;stroke:none"
               d="m 0,0 c -3.794,1.034 -4.693,8.327 -9.875,5.393 -2.574,-1.459 -1.379,-5.01 1.347,-5.416 2.386,-0.354 5.959,1.113 8.09,0.207" /></g><g
             transform="translate(402.1064,782.8896)"
             id="g293"><path
               inkscape:connector-curvature="0"
               id="path295"
               style="fill:#ffffff;fill-opacity:1;fill-rule:nonzero;stroke:none"
               d="m 0,0 c -3.415,-1.954 -9.208,2.569 -10.798,-3.171 -0.788,-2.853 2.568,-4.517 4.783,-2.878 1.939,1.436 3.425,5 5.574,5.866" /></g><g
             transform="translate(406.1646,782.0068)"
             id="g297"><path
               inkscape:connector-curvature="0"
               id="path299"
               style="fill:#ffffff;fill-opacity:1;fill-rule:nonzero;stroke:none"
               d="m 0,0 c -1.033,-3.794 -8.326,-4.693 -5.391,-9.876 1.458,-2.575 5.008,-1.379 5.414,1.347 0.356,2.386 -1.113,5.958 -0.204,8.091" /></g><g
             transform="translate(408.9282,782.7983)"
             id="g301"><path
               inkscape:connector-curvature="0"
               id="path303"
               style="fill:#ffffff;fill-opacity:1;fill-rule:nonzero;stroke:none"
               d="m 0,0 c 1.951,-3.412 -2.57,-9.208 3.169,-10.797 2.852,-0.79 4.517,2.567 2.877,4.783 -1.438,1.935 -5,3.425 -5.865,5.573" /></g><g
             transform="translate(413.2964,784.3018)"
             id="g305"><path
               inkscape:connector-curvature="0"
               id="path307"
               style="fill:#ffffff;fill-opacity:1;fill-rule:nonzero;stroke:none"
               d="m 0,0 c 3.796,-1.034 4.695,-8.327 9.877,-5.393 2.576,1.457 1.379,5.01 -1.347,5.415 C 6.145,0.377 2.572,-1.091 0.439,-0.183" /></g><g
             transform="translate(411.9595,786.8994)"
             id="g309"><path
               inkscape:connector-curvature="0"
               id="path311"
               style="fill:#ffffff;fill-opacity:1;fill-rule:nonzero;stroke:none"
               d="M 0,0 C 3.413,1.953 9.206,-2.569 10.794,3.171 11.584,6.023 8.227,7.688 6.014,6.048 4.076,4.611 2.587,1.047 0.438,0.182" /></g><g
             transform="translate(408.707,787.2192)"
             id="g313"><path
               inkscape:connector-curvature="0"
               id="path315"
               style="fill:#ffffff;fill-opacity:1;fill-rule:nonzero;stroke:none"
               d="M 0,0 C 1.032,3.795 8.328,4.694 5.393,9.877 3.935,12.453 0.383,11.255 -0.024,8.529 -0.378,6.144 1.09,2.572 0.184,0.44" /></g></g></g></g></g></g>


</g></svg>